<?xml version="1.0" encoding="UTF-8"?>
<svg id="_Слой_1" data-name="Слой 1" xmlns="http://www.w3.org/2000/svg" viewBox="0 0 185.25 100">
  <defs>
    <style>
      .cls-1, .cls-2 {
        fill: #fff;
      }

      .cls-3, .cls-4, .cls-2 {
        fill-rule: evenodd;
      }

      .cls-3, .cls-5 {
        fill: #d12d18;
      }

      .cls-4, .cls-6 {
        fill: #ebb410;
      }

      .cls-7 {
        fill: none;
      }
    </style>
  </defs>
  <path class="cls-3" d="M118.44,16.29s-.01,58.1-.01,59.5c0,4.89-6.36,4.75-6.36,4.75h-16.86c-3.47,0-5.58,3.18-5.58,3.18,0,0-1.87-3.18-5.97-3.18h-15.8s-7.43,.3-7.43-4.17V16.28h58.02Z"/>
  <g>
    <path class="cls-2" d="M91.46,49.23l12.63-13.22s1.89-1.66,3.25-1.56,1.97,.52,1.97,.52c0,0,0,1.33-1.33,2.55-.28-.54-.35-.64-.35-.64,0,0-2.6,3.43-3.42,3.99,1.66-.49,3.64-1.11,5.4-2.37-.66-.26-.75-.29-.75-.29,0,0,1.12-1.13,1.51-1.68,.22,.71,.27,2.4-1.04,3.72-.21-.28-.46-.65-.46-.65,0,0-2.03,2.96-3.42,4.28,1.49-.34,3.5-1.08,5.69-2.72-.89-.14-.99-.17-.99-.17,0,0,2.03-1.96,2.03-4.74,0-1.56-1.62-2.72-1.62-2.72,0,0-.77-1.21-2.55-1.21-1.43,0-1.86,.46-1.86,.46,0,0,.72-2.55,.17-3.47-.75-1.26-1.86-1.33-1.86-1.33,0,0-.94-1.27-3.19-1.27s-4.06,2.02-4.06,2.02l-.29-.4s-.96,.92-1.91,5.03c1.08-1.14,2.22-2.4,3.77-3.41-.69-.31-.7-.29-.7-.29,0,0,1.19-1.5,2.85-1.5,.33,0,.99,.17,.99,.17,0,0-.78,.45-1.63,1.68-.39-.56-.41-.58-.41-.58,0,0-1.39,1.7-2.03,5.26,1.01-.93,2.94-2.58,4.24-3.41-1-.35-1.04-.35-1.04-.35,0,0,1.07-1.42,2.15-1.39,.38,.01,.91,.23,1.03,.79,.12,.56,.23,2.2-.8,3.37-.81,.93-8.71,9-12.12,12.38"/>
    <path class="cls-5" d="M91.56,49.33l-.21-.2,12.63-13.22c.09-.08,1.97-1.71,3.37-1.61,1.38,.1,2.02,.53,2.04,.55l.06,.04v.08c0,.06-.01,1.41-1.38,2.65l-.14,.13-.09-.17c-.11-.21-.18-.35-.23-.44-.45,.59-1.91,2.46-2.82,3.4,1.57-.48,3.09-1.04,4.5-2-.41-.16-.49-.18-.49-.19l-.23-.07,.17-.17s1.12-1.12,1.49-1.66l.17-.24,.09,.28c.23,.73,.3,2.48-1.08,3.86l-.12,.12-.1-.14c-.12-.16-.25-.35-.35-.48-.42,.6-1.79,2.54-2.95,3.75,1.65-.44,3.28-1.24,4.84-2.36-.54-.09-.64-.12-.66-.12l-.22-.08,.17-.16s1.99-1.95,1.99-4.64c0-1.46-1.55-2.59-1.56-2.6l-.04-.04s-.76-1.14-2.43-1.15c-1.33,0-1.74,.41-1.75,.42l-.41,.42,.16-.56s.7-2.5,.19-3.35c-.7-1.18-1.73-1.26-1.74-1.26h-.07s-.04-.06-.04-.06c0-.01-.93-1.21-3.07-1.21s-3.93,1.96-3.95,1.98l-.12,.14-.28-.4c-.26,.36-.94,1.49-1.63,4.29,.94-.99,1.92-2.01,3.2-2.88-.34-.15-.41-.17-.42-.17l.03-.13-.13-.09s.03-.05,.05-.06c.22-.26,1.36-1.51,2.93-1.51,.34,0,1,.17,1.02,.17l.35,.09-.31,.18s-.77,.45-1.58,1.64l-.12,.18-.12-.17c-.14-.2-.23-.33-.29-.41-.33,.47-1.26,1.99-1.8,4.6,.98-.88,2.52-2.18,3.68-2.96-.63-.22-.73-.24-.74-.24h-.29s.2-.23,.2-.23c.05-.06,1.1-1.45,2.23-1.45,.01,0,.03,0,.04,0,.49,.01,1.04,.3,1.17,.91,.02,.08,.43,2.06-.83,3.5-.82,.94-8.75,9.05-12.12,12.39l-.21-.21c3.37-3.34,11.29-11.43,12.11-12.37,.93-1.07,.91-2.59,.76-3.25-.11-.51-.61-.67-.89-.67-.01,0-.02,0-.03,0-.77,0-1.55,.81-1.86,1.16,.16,.05,.41,.14,.84,.29l.29,.1-.25,.16c-1.29,.83-3.23,2.49-4.22,3.4l-.32,.3,.08-.43c.64-3.56,2-5.26,2.06-5.33l.11-.14,.11,.14s.15,.21,.29,.42c.51-.71,.99-1.13,1.27-1.36-.21-.04-.47-.09-.63-.09-1.25,0-2.24,.91-2.59,1.29,.12,.05,.28,.12,.5,.22l.25,.11-.23,.15c-1.42,.93-2.48,2.05-3.5,3.13l-.62,.65,.12-.53c.95-4.11,1.92-5.07,1.96-5.11l.12-.12,.29,.4c.46-.46,2.07-1.94,4.05-1.94s3.06,1.03,3.27,1.28c.26,.04,1.22,.25,1.91,1.39,.45,.76,.11,2.47-.07,3.22,.29-.14,.8-.29,1.62-.29,1.72,0,2.54,1.08,2.66,1.26,.21,.15,1.66,1.29,1.66,2.82,0,2.34-1.37,4.08-1.89,4.65,.14,.03,.37,.06,.72,.12l.35,.05-.28,.21c-1.84,1.38-3.77,2.3-5.74,2.74l-.52,.12,.39-.37c1.36-1.29,3.38-4.23,3.4-4.26l.12-.18,.12,.18s.18,.26,.36,.51c.95-1.04,1.1-2.34,.96-3.15-.35,.43-.9,1.01-1.17,1.28,.11,.04,.29,.11,.54,.21l.25,.1-.22,.16c-1.7,1.23-3.54,1.83-5.44,2.39l-.9,.27,.77-.53c.79-.54,3.36-3.92,3.39-3.96l.12-.16,.12,.16s.07,.1,.27,.48c.96-.95,1.12-1.94,1.14-2.22-.19-.1-.78-.38-1.83-.46-1.28-.09-3.12,1.51-3.14,1.53l-12.62,13.21Z"/>
  </g>
  <path class="cls-2" d="M87.95,46.01l-14.85-14.57s-.47-.94,.41-1.5c.87-.57,1.62-.97,3.07-.69s2.15,.87,2.15,.87l-.7,.75s2.36,.8,4.64,2.49c-.59-1.58-1.72-3.75-2.9-5.09-.23,.92-.35,1.04-.35,1.04,0,0-1.47-1.35-3.54-1.5-1.11,0-2.64,.23-4.29,.23s-3.65-.4-3.65-.4c0,0,.41,1.71,.41,3.01s-.4,4.07-.17,5.15c.31,1.77,1.28,2.95,1.28,2.95,0,0-.42,.26-.81,.35,.17,.19,1.92,1.82,4.93,3.07-.59-.87-1.98-2.99-2.73-4.8-.5,.77-.64,.81-.64,.81,0,0-.66-1.09-.7-2.37-.04-1.28,.49-2.33,.87-2.78,.38-.45,.67-.63,1.04-.58,.36,.05,.41,.29,1.22,1.1,.76,.75,13.46,14.11,15.08,15.82"/>
  <path class="cls-2" d="M76.63,64.53c.57,.83,.9,1.84,.9,2.92,0,2.86-2.32,5.19-5.19,5.19s-5.19-2.32-5.19-5.19,2.32-5.19,5.19-5.19c.82,0,1.6,.19,2.29,.53"/>
  <g>
    <path class="cls-2" d="M102.68,64.77c-.47,.78-.74,1.7-.74,2.68,0,2.86,2.32,5.19,5.19,5.19s5.19-2.32,5.19-5.19-2.32-5.19-5.19-5.19c-.82,0-1.76,.26-2.45,.6"/>
    <path class="cls-5" d="M107.13,72.78c-2.94,0-5.33-2.39-5.33-5.33,0-.97,.26-1.93,.77-2.75l.25,.15c-.47,.78-.72,1.68-.72,2.6,0,2.78,2.26,5.04,5.04,5.04s5.04-2.26,5.04-5.04-2.26-5.04-5.04-5.04c-.74,0-1.65,.22-2.39,.58l-.13-.26c.77-.38,1.73-.61,2.52-.61,2.94,0,5.33,2.39,5.33,5.33,0,2.94-2.39,5.33-5.33,5.33Z"/>
  </g>
  <path class="cls-3" d="M106.15,64.4c.34-.12,.59-.15,.97-.15,1.76,0,3.19,1.43,3.19,3.19s-1.43,3.19-3.19,3.19-3.19-1.43-3.19-3.19c0-.44,.09-.85,.25-1.23"/>
  <path class="cls-3" d="M75.19,65.99c.22,.44,.35,.93,.35,1.46,0,1.76-1.43,3.19-3.19,3.19s-3.19-1.43-3.19-3.19,1.43-3.19,3.19-3.19c.31,0,.6,.04,.88,.12"/>
  <g>
    <path class="cls-1" d="M101.89,28.32s1.13-.61,2.55-.34"/>
    <path class="cls-5" d="M101.96,28.45l-.14-.26s1.19-.63,2.64-.36l-.05,.29c-1.35-.25-2.44,.32-2.45,.33Z"/>
  </g>
  <g>
    <path class="cls-1" d="M109.31,34.97s.69,.25,1.04,1.56"/>
    <path class="cls-5" d="M110.21,36.57c-.33-1.21-.95-1.46-.95-1.46l.1-.28s.76,.29,1.14,1.66l-.28,.08Z"/>
  </g>
  <g>
    <path class="cls-2" d="M97.19,28.72s-.83,.94-2.14,4.54c1.84-2.59,3.01-3.61,3.01-3.61"/>
    <path class="cls-5" d="M94.53,34.23l.37-1.02c1.31-3.59,2.13-4.55,2.17-4.58l.22,.2s-.67,.79-1.73,3.48c1.46-1.93,2.35-2.72,2.39-2.76l.19,.22s-1.18,1.05-2.99,3.59l-.63,.89Z"/>
  </g>
  <g>
    <path class="cls-2" d="M100.26,30s-1.14,1.28-2.44,4.68c1.7-2.34,3.19-3.76,3.19-3.76"/>
    <path class="cls-5" d="M97.29,35.66l.39-1.03c1.29-3.39,2.42-4.68,2.46-4.73l.22,.2s-.91,1.04-2,3.61c1.4-1.8,2.53-2.88,2.54-2.89l.2,.21s-1.5,1.44-3.17,3.74l-.65,.89Z"/>
  </g>
  <g>
    <path class="cls-2" d="M110.53,33.53s-2.09-1.49-4.41-.75"/>
    <path class="cls-5" d="M110.44,33.65s-2.06-1.44-4.28-.73l-.09-.28c2.36-.75,4.45,.71,4.54,.77l-.17,.24Z"/>
  </g>
  <g>
    <path class="cls-2" d="M107.98,37.52s-1.65,1.92-3.77,3.35c3.62-1.67,4.64-2.66,4.64-2.66"/>
    <path class="cls-5" d="M104.27,41l-.14-.26c2.08-1.4,3.72-3.31,3.74-3.33l.22,.19s-1.07,1.24-2.57,2.46c2.44-1.23,3.21-1.96,3.22-1.97l.21,.21s-1.08,1.03-4.68,2.69Z"/>
  </g>
  <g>
    <path class="cls-2" d="M110.12,40.99s-1.12,1.33-4.7,2.89c2.8-2.2,3.89-3.63,3.89-3.63"/>
    <path class="cls-5" d="M104.43,44.48l.91-.71c2.75-2.17,3.85-3.59,3.86-3.6l.23,.18c-.04,.05-.89,1.15-2.99,2.91,2.66-1.3,3.56-2.34,3.57-2.36l.22,.19c-.05,.06-1.19,1.37-4.75,2.93l-1.06,.46Z"/>
  </g>
  <path class="cls-2" d="M87.45,49.97l-14.17,14.18s-.29,.88,.38,1.55c.67,.67,1.54,.28,1.54,.28l13.36-13.62"/>
  <path class="cls-2" d="M90.66,52.44l8.85,9.02s.3,.5,.23,.93-1.42,3.8-1.97,5.15c-.55,1.34-.75,2.37-.75,2.37l1.33,.46s.69-2.7,3.83-6.13c.23,.28,1.95,1.95,1.95,1.95,0,0,.81,.47,1.58-.27,.8-.76,.52-1.54,.32-1.74l-1.83-1.8s1.56-1.98,5.87-3.7c-.5-1.08-.52-1.1-.52-1.1,0,0-2.52,.38-5.8,1.74-.37,.14-2,.61-2.44,.17-.38-.37-7.44-7.37-9.52-9.44"/>
  <g>
    <path class="cls-4" d="M91.68,26.41c.02-.1-.04-.31-.17-.44-.12-.13-.28-.17-.43-.18-.15-.01-.59-.31-.66-.51-.07-.2,.04-.19,.28-.12,.24,.07,.45,.14,.54,.28s.45,.2,.45,.2c.11,.09,.35-.03,.52-.01,.17,.02,.03-.33,.19-.21s.35,.02,.35,.02c.25-.04,.1-.41,.1-.41,0,0,.39-.01,.52-.12,.14-.1,.05-.32,.06-.46,.01-.14-.21-.14-.17-.23,.03-.1-.12-.23-.12-.23,0,0,.26-.2,.23-.29-.03-.09-.17-.17-.17-.17,0,0,.19-.25,.17-.35-.02-.1-.17-.12-.17-.12,0,0,.11-.18,.12-.35,0-.17-.21-.07-.23-.12,.06-.12,.05-.37-.16-.24,.12-.25,0-.63-.08-.63-.08,0-.33,.5-1.04,1.16-.21,.19-.62,.59-.64,.64-.02,.05-.03,.21,.06,.29,.09,.08,.29,.25,.12,.4s-.62,.15-.7,0c-.08-.15,.19-.19,.17-.29-.02-.1-.26-.21-.29-.35-.03-.14-.18-.32-.12-.46,.06-.14,.07-.34,.29-.35,.22,0,.32,.25,.41,.12,.09-.13,.12-.23,.12-.23,0,0,.13,.11,.23,.06,.1-.05,.12-.21,.06-.29-.07-.08-.14-.26-.06-.35,.08-.09,.25-.25,.41-.17,.16,.08,.08,.36,.23,.35,.09,0,.23-.15,.23-.29,0-.14-.12-.16-.12-.23,0-.07,.15-.01,.23-.1,.08-.09-.1-.1-.1-.1,0,0-.04-.13-.14-.17-.12-.04-.21,.11-.25,.04-.28-.42-.56-.05-.45,.1,.07,.09-.03,.3-.18,.33s-.03-.15-.03-.26c-.02-.29-.31-.35-.35-.42-.04-.07,0-.25-.15-.24-.15,.01-.13,.25-.14,.29s-.09,.05-.17,.06c-.17,.01-.05,.28-.19,.29-.14,.01-.24-.24-.17-.43,.07-.18,0-.33,0-.33,0,0-.06-.15-.37-.2,.05-.25-.15-.22-.15-.22,0,0-.19-.03-.14,.22-.32,.05-.41,.22-.41,.22,0,0-.07,.13,0,.32,.07,.18-.03,.43-.17,.42-.14-.01-.02-.28-.19-.29-.09,0-.17-.01-.17-.06,0-.05,.01-.28-.14-.29-.15-.01-.12,.17-.15,.23-.04,.07-.33,.13-.35,.42,0,.11,.12,.29-.03,.26-.15-.03-.24-.24-.18-.33,.11-.15-.17-.52-.45-.1-.04,.06-.13-.08-.25-.04-.1,.03-.14,.17-.14,.17,0,0-.18,.02-.1,.1,.08,.09,.22,.03,.23,.1,0,.07-.12,.09-.12,.23,0,.14,.14,.28,.23,.29,.15,.01,.08-.27,.23-.35s.32,.09,.41,.17,0,.27-.06,.35c-.07,.08-.04,.24,.06,.29,.1,.05,.23-.06,.23-.06,0,0,.03,.1,.12,.23,.09,.13,.19-.12,.41-.12,.22,0,.23,.21,.29,.35,.06,.14-.08,.33-.12,.46s-.27,.25-.29,.35c-.02,.1,.25,.14,.17,.29-.08,.15-.52,.15-.7,0s.03-.32,.12-.4c.09-.08,.07-.24,.06-.29-.02-.05-.43-.44-.64-.64-.71-.66-.97-1.15-1.04-1.16-.08,0-.2,.38-.08,.63-.2-.13-.22,.12-.16,.24-.03,.05-.24-.05-.23,.12,0,.17,.12,.35,.12,.35,0,0-.16,.01-.17,.12-.02,.1,.17,.35,.17,.35,0,0-.14,.08-.17,.17-.03,.09,.23,.29,.23,.29,0,0-.15,.14-.12,.23,.03,.1-.19,.09-.17,.23,.01,.14-.08,.36,.06,.46,.14,.1,.52,.12,.52,.12,0,0-.15,.37,.1,.41,0,0,.19,.1,.35-.02s.03,.23,.19,.21c.17-.02,.41,.1,.52,.01,0,0,.37-.07,.45-.2,.09-.13,.3-.21,.54-.28,.24-.07,.35-.08,.28,.12-.07,.2-.51,.5-.66,.51-.15,.01-.31,.04-.43,.18-.12,.13-.19,.34-.17,.44s-.1-.12-.38-.13l-1.12-.87-.17-.05,.03,.15,.97,.9s-.13,.16,.17,.23c-.1,.2-.12,.45-.06,.52,.06,.07,.35,.23,.35,.23,0,0,.09,.25,.17,.29,.09,.04,.14,0,.17-.12,.03-.11-.04-.46-.04-.46l.54-.11s.42-.09,.57-.33,.21-.6,.48-.5c.55,.21-.29,1.07-.57,1.11s-.59,.4-.58,.64c.02,.24,.42,.19,.46,.35,.24,.77-.48,1.42-.27,1.79,.21,.37,.42,.46,.42,.46v.29s-.08,.26-.08,.69,.65,.68,.65,.68c0,0-.31,.17-.19,.65,.12,.49,.24,1.68,.14,3.12-.1,1.44-.44,5.47-.45,6.94-.01,1.47,.22,2.17,.22,2.17h-1.07s.28-.07,.23,.43c-.05,.51-.4,1.18-.41,1.59,0,.41,.45,.73,.98,.78-.27,.06-.54,.18-.53,.42,0,.24,.37,.29,.37,.29,0,0-1.16,.63-1.16,1.9s1.33,1.61,1.33,1.61c0,0-.17,.17-.17,.4,0,.23,.26,.38,.35,.52,.09,.13,.22,.55,.17,1.5-.05,.95-.63,4.82-.75,6.59s-.06,2.52,.29,3.41h-.82s.57,.15,.47,.47c-.09,.29-.27,1.17-.12,1.59,.16,.42,.58,.95,1,.99-.46,.1-.58,.29-.58,.49s.2,.43,.44,.41c-.21,.25-.35,1.26-.35,2.13s.31,1.63,.31,1.63c0,0-.39,.04-.43,.33-.04,.29,.23,.4,.23,.4,0,0-.52,.21-.52,.98s.42,1.2,.75,1.22c-.27,.04-.34,.44-.06,.58-.13,.1-.35,.36-.35,.72s.16,.94,1,.94,1.02-.59,1.02-.94-.2-.61-.34-.71c.28-.14,.2-.54-.06-.58,.33-.01,.75-.45,.75-1.22s-.52-.98-.52-.98c0,0,.27-.11,.23-.41s-.43-.34-.43-.34c0,0,.31-.76,.31-1.63s-.14-1.89-.35-2.14c.24,.01,.44-.22,.44-.42s-.12-.42-.58-.52c.43-.04,.85-.61,1.01-1.02,.16-.42-.03-1.22-.12-1.51-.1-.32,.47-.47,.47-.47h-.82c.35-.88,.42-1.64,.29-3.41-.13-1.77-.71-5.55-.75-6.5-.05-.95,.08-1.41,.17-1.55,.09-.13,.35-.31,.35-.54s-.17-.42-.17-.42c0,0,1.33-.36,1.33-1.62s-1.16-1.91-1.16-1.91c0,0,.36-.07,.37-.31,0-.24-.26-.4-.53-.46,.53-.05,.98-.44,.98-.85s-.36-.94-.41-1.44c-.05-.51,.23-.43,.23-.43h-1.07s.22-.7,.21-2.17c-.01-1.47-.37-5.36-.46-6.8s0-2.71,.12-3.2c.12-.49-.25-.69-.25-.69,0,0,.43-.27,.43-.7s-.4-.71-.4-.71v-.29s.53-.09,.75-.46c.21-.37-.24-1.02,0-1.79,.05-.15,.48-.11,.49-.35s-.29-.6-.57-.64-1.12-.9-.56-1.11c.27-.1,.33,.27,.48,.5s.57,.33,.57,.33l.54,.11s-.07,.35-.04,.46c.03,.11,.09,.15,.17,.12,.09-.04,.17-.29,.17-.29,0,0,.28-.16,.35-.23,0,0,.57-.11,.57-.5s-.45-.4-.45-.4v-.19s.17-.15,.17-.15l-.17-.13-.18,.14,.18,.14v.19s-.41,.11-.41,.34-.13,.23-.13,.23c0,0-.2-.1-.13-.43Z"/>
    <path class="cls-5" d="M89.59,77.56c-.84,0-1.14-.56-1.14-1.09,0-.31,.14-.56,.27-.71-.08-.1-.12-.23-.1-.36,0-.07,.03-.13,.06-.18-.32-.19-.59-.64-.59-1.27,0-.54,.23-.84,.41-.99-.08-.1-.15-.23-.12-.42,.03-.23,.21-.36,.38-.42-.09-.27-.27-.87-.27-1.52,0-.72,.09-1.6,.27-2.03-.23-.09-.37-.32-.37-.52,0-.22,.1-.39,.31-.51-.34-.22-.61-.64-.73-.95-.17-.47,.02-1.43,.11-1.72,.04-.14-.27-.31-.38-.36l-.74-.28h1.4c-.3-.82-.34-1.55-.22-3.2,.07-.95,.27-2.49,.44-3.85,.15-1.14,.29-2.22,.31-2.66,.05-1.08-.13-1.38-.15-1.41-.02-.03-.06-.07-.1-.11-.12-.12-.28-.28-.27-.5,0-.13,.04-.24,.09-.33-.39-.16-1.25-.63-1.25-1.69,0-.97,.63-1.59,.99-1.87-.11-.07-.19-.17-.2-.32,0-.11,.03-.27,.21-.4-.39-.17-.66-.49-.66-.84,0-.23,.1-.53,.2-.84,.09-.28,.18-.56,.21-.79,.02-.26-.05-.34-.09-.34v-.29h.89c-.07-.29-.18-.92-.17-1.95,0-1.06,.19-3.45,.33-5.19,.05-.69,.1-1.29,.13-1.69,.1-1.47-.02-2.65-.13-3.08-.07-.3,0-.51,.1-.65-.21-.13-.5-.37-.5-.71,0-.37,.1-.64,.15-.73v-.16c-.12-.06-.32-.21-.48-.48-.13-.23-.03-.5,.07-.78,.11-.31,.23-.67,.12-1.04,0,0-.07-.02-.11-.03-.13-.04-.35-.12-.36-.35-.02-.33,.36-.75,.71-.79,.12-.01,.59-.43,.62-.7,0-.06,0-.09-.09-.12-.02,0-.03,0-.03,0-.05,0-.11,.13-.15,.23-.04,.08-.07,.15-.11,.22-.18,.28-.61,.38-.66,.39l-.41,.08c.02,.13,.03,.3,0,.39-.06,.21-.19,.24-.26,.24-.04,0-.07,0-.11-.02-.11-.05-.19-.19-.24-.32-.11-.06-.28-.17-.34-.24-.1-.11-.09-.33-.02-.53-.08-.04-.12-.1-.15-.16-.01-.04-.01-.08,0-.11l-.93-.86-.1-.44,.45,.15,.04,.03c0-.06,0-.11,0-.16-.14-.02-.32-.05-.42-.13-.16-.12-.14-.32-.12-.45,0-.04,.01-.09,0-.12-.01-.16,.11-.24,.17-.27,0-.07,.03-.13,.06-.18-.14-.13-.2-.25-.16-.36,.02-.06,.06-.11,.11-.16-.07-.11-.13-.24-.11-.34,.01-.08,.06-.13,.11-.17-.03-.07-.06-.17-.06-.26,0-.09,.03-.15,.06-.18,.04-.04,.09-.06,.14-.07,0-.07,.01-.13,.04-.19,.02-.04,.06-.07,.1-.09-.02-.2,.03-.39,.1-.5,.06-.09,.13-.11,.17-.11,.1,0,.15,.07,.29,.25,.03,.03,.05,.07,.09,.11,0-.06,.02-.1,.04-.14-.04-.02-.08-.04-.11-.08-.08-.09-.06-.17-.04-.2,.03-.07,.09-.11,.15-.13,.04-.06,.1-.15,.2-.18,.08-.03,.17,0,.23,.02,.12-.15,.25-.18,.33-.18,.13,0,.25,.08,.31,.2,0,.02,.01,.03,.02,.05,.08-.11,.18-.17,.25-.21,.01,0,.02-.01,.03-.02,0,0,0-.02,0-.02,.01-.07,.05-.27,.26-.27,.14,.01,.27,.08,.29,.35,.02,0,.03,0,.04,0,.14,0,.2,.1,.22,.18,0-.03,0-.07-.01-.11-.09-.24-.01-.42,0-.44,.01-.03,.11-.19,.39-.27,0-.06,.03-.11,.06-.15,.05-.06,.13-.1,.22-.1h.02s.01,0,.02,0c.09,0,.18,.04,.23,.1,.03,.04,.05,.09,.06,.15,.27,.08,.35,.23,.36,.26,0,.01,.08,.2,0,.43-.01,.03-.02,.07-.01,.11,.03-.08,.09-.16,.22-.17,.01,0,.03,.07,.04,.07,.03-.27,.16-.28,.27-.28h0c.24,0,.27,.14,.29,.21,0,0,0-.02,0-.01,0,0,.02,0,.03,0,.07,.04,.18,.09,.25,.21,0-.02,.01-.03,.02-.05,.06-.12,.18-.2,.31-.2,.09,0,.21,.03,.33,.18,.07-.03,.15-.05,.23-.02,.1,.03,.17,.11,.2,.18,.06,.02,.13,.05,.15,.13,.01,.03,.03,.12-.04,.2-.03,.04-.07,.06-.11,.08,.02,.04,.04,.08,.04,.14,.03-.04,.06-.08,.09-.11,.14-.18,.19-.24,.28-.25h0c.05,0,.12,.02,.18,.11,.07,.1,.12,.3,.1,.5,.04,.02,.07,.05,.1,.09,.03,.05,.05,.12,.04,.19,.04,0,.09,.02,.13,.07,.03,.03,.07,.09,.06,.18,0,.09-.03,.19-.06,.26,.06,.04,.1,.09,.12,.17,.02,.1-.04,.23-.12,.34,.04,.04,.09,.1,.11,.16,.04,.1-.02,.22-.16,.36,.03,.05,.06,.12,.06,.18,.06,.04,.18,.11,.17,.27,0,.03,0,.07,0,.12,.02,.13,.04,.33-.12,.45-.1,.08-.28,.11-.42,.13,.01,.09,0,.19-.04,.27-.03,.05-.09,.12-.2,.14-.06,.03-.23,.07-.36,.02,0,.03-.02,.05-.03,.07l.32,.25-.24,.22c.2,.05,.45,.19,.45,.53,0,.38-.39,.57-.64,.63-.08,.07-.21,.15-.3,.2-.05,.13-.13,.28-.24,.32-.04,.02-.08,.02-.11,.02-.07,0-.2-.03-.26-.24-.03-.09-.01-.25,0-.39l-.4-.08c-.05-.01-.49-.12-.67-.39-.04-.07-.08-.14-.11-.22-.05-.1-.11-.23-.15-.23,0,0-.02,0-.03,0-.08,.03-.09,.07-.09,.12,.03,.27,.5,.69,.62,.7,.35,.04,.73,.46,.7,.79-.02,.24-.24,.31-.37,.35-.04,.01-.1,.03-.12,.05-.11,.36-.03,.71,.04,1.03,.07,.3,.12,.56,0,.78-.17,.3-.48,.44-.65,.5v.12c.1,.11,.32,.38,.32,.77,0,.33-.23,.57-.41,.71,.12,.14,.23,.38,.15,.7-.12,.5-.2,1.76-.11,3.13,.03,.43,.08,1.08,.14,1.82,.14,1.74,.31,3.91,.32,4.95,0,1.04-.1,1.66-.16,1.95h.92v.29s-.13,.08-.1,.34c.02,.23,.1,.48,.19,.73,.1,.29,.2,.56,.2,.8,0,.37-.28,.72-.68,.89,.15,.11,.24,.26,.23,.43,0,.15-.09,.26-.2,.33,.36,.27,1,.9,1,1.88,0,1.06-.86,1.53-1.25,1.7,.05,.09,.09,.2,.09,.33,0,.22-.16,.39-.28,.51-.04,.04-.07,.08-.1,.11-.08,.11-.19,.54-.15,1.44,.02,.43,.15,1.45,.31,2.63,.18,1.35,.38,2.88,.45,3.84,.12,1.65,.07,2.37-.22,3.2h1.39l-.73,.28c-.14,.05-.43,.22-.38,.36,.07,.23,.3,1.19,.11,1.68-.12,.32-.4,.74-.74,.97,.26,.15,.32,.36,.32,.52,0,.21-.15,.44-.37,.53,.18,.44,.27,1.31,.27,2.03,0,.66-.17,1.25-.27,1.53,.17,.06,.35,.19,.38,.42,.03,.18-.04,.32-.12,.42,.18,.15,.42,.45,.42,.99,0,.63-.27,1.08-.58,1.27,.03,.05,.06,.12,.07,.19,.02,.13-.02,.26-.1,.36,.13,.15,.26,.39,.26,.7,0,.5-.3,1.09-1.16,1.09Zm0-2.33l-.56,.09c-.07,.01-.1,.07-.11,.13,0,.03,0,.12,.09,.18l.22,.11-.2,.14c-.08,.06-.29,.28-.29,.6,0,.24,.08,.79,.85,.79,.81,0,.87-.61,.87-.79,0-.31-.18-.52-.28-.59l-.2-.14,.22-.11c.1-.05,.1-.15,.09-.18,0-.05-.04-.12-.12-.13l-.6-.1Zm.08-7.64l-.49,.11c-.46,.1-.46,.3-.46,.37,0,.12,.13,.29,.27,.29h.31l-.18,.23c-.15,.18-.31,1.05-.31,2.03,0,.83,.3,1.56,.3,1.57l.08,.18-.2,.02s-.27,.03-.3,.21c-.03,.18,.13,.24,.14,.25l.34,.14-.34,.14s-.43,.19-.43,.84,.36,1.06,.61,1.07l.67,.03,.52-.02c.26-.01,.61-.39,.61-1.07s-.41-.84-.43-.84l-.33-.14,.33-.13s.17-.08,.14-.25c-.03-.18-.3-.21-.3-.21l-.2-.02,.07-.18s.3-.75,.3-1.57c0-.98-.17-1.87-.31-2.05l-.22-.24,.34,.04h0c.16,0,.29-.17,.29-.29,0-.07,0-.28-.47-.38l-.37-.09Zm-1.4-3.06c.11,.12,.17,.27,.12,.44-.09,.29-.25,1.17-.12,1.53,.15,.41,.54,.88,.88,.91l.3,.03,.6-.06c.33-.03,.73-.51,.89-.93,.13-.35-.02-1.15-.12-1.49-.05-.17,.01-.32,.12-.44h-.55l.08-.2c.35-.87,.4-1.54,.28-3.27-.07-.95-.27-2.47-.44-3.82-.15-1.18-.29-2.2-.31-2.65-.06-1.15,.14-1.53,.2-1.62,.03-.05,.08-.1,.13-.15,.09-.09,.19-.2,.19-.3,0-.17-.13-.31-.13-.31l-.17-.18,.24-.06c.05-.01,1.23-.35,1.23-1.48s-1.07-1.78-1.08-1.78l-.35-.2,.4-.08c.08-.01,.24-.08,.25-.17,0-.15-.21-.26-.41-.31l-.88-.2,.9-.09c.46-.04,.84-.37,.84-.71,0-.19-.09-.44-.18-.7-.1-.27-.2-.54-.22-.81-.01-.15,0-.27,.03-.37h-.93l.07-.2s.21-.63,.2-2.05c0-1.02-.18-3.19-.32-4.92-.06-.74-.11-1.39-.14-1.83-.09-1.42-.01-2.69,.12-3.22,.09-.36-.15-.5-.18-.51l-.21-.12-.19,.09s-.22,.13-.14,.49c.13,.54,.23,1.76,.14,3.17-.03,.4-.07,1.01-.13,1.7-.13,1.73-.32,4.11-.33,5.16-.01,1.42,.2,2.04,.21,2.05l.07,.2h-.93c.03,.1,.04,.23,.03,.37-.02,.26-.12,.57-.22,.86-.09,.28-.19,.57-.19,.75,0,.32,.38,.61,.84,.65l.9,.09-.88,.2c-.13,.03-.42,.12-.41,.29,0,.1,.2,.14,.24,.15l.43,.06-.38,.21s-1.08,.61-1.08,1.77,1.17,1.46,1.22,1.47l.24,.06-.17,.18s-.13,.14-.13,.3c0,.1,.1,.2,.19,.28,.05,.05,.1,.1,.14,.15,.08,.11,.25,.5,.2,1.59-.02,.45-.16,1.48-.31,2.68-.18,1.36-.38,2.89-.44,3.84-.12,1.73-.07,2.4,.28,3.27l.08,.2h-.55Zm.87-38.51s.09,0,.14,.03c.2,.07,.3,.23,.28,.43-.05,.41-.61,.93-.88,.96-.21,.02-.46,.32-.45,.48,0,.03,.05,.05,.16,.09,.11,.04,.25,.08,.3,.22,.14,.47,0,.89-.12,1.23-.08,.23-.15,.43-.09,.54,.18,.31,.41,.39,.42,.4l.1,.03v.43s-.02,.03-.02,.03c0,0-.13,.24-.13,.62,0,.32,.51,.54,.52,.54l.27,.11,.14-.08s.42-.23,.42-.56c0-.36-.27-.59-.27-.6l-.05-.04v-.48l.12-.02s.4-.09,.57-.39c.07-.12,.02-.33-.03-.57-.07-.33-.16-.74-.02-1.19,.04-.14,.19-.19,.3-.22,.09-.03,.16-.06,.17-.09,.01-.16-.24-.46-.45-.48-.27-.03-.83-.55-.88-.96-.02-.2,.08-.36,.28-.43,.05-.02,.09-.03,.14-.03,.23,0,.34,.22,.42,.4,.03,.06,.06,.13,.1,.18,.09,.15,.39,.24,.48,.26l.68,.14-.03,.14c-.03,.15-.05,.31-.04,.38,.02-.04,.05-.11,.07-.16l.02-.05,.05-.03c.14-.08,.28-.17,.31-.2l.03-.04h.05s.45-.11,.45-.37c0-.21-.21-.24-.29-.25-.12,.04-.27,.13-.27,.19,0,.29-.18,.38-.27,.38h-.04s-.03-.02-.03-.02c-.01,0-.3-.15-.21-.59,0-.04-.03-.2-.13-.31-.07-.08-.17-.12-.33-.13-.2-.01-.7-.35-.79-.61-.03-.07-.06-.18,0-.27,.05-.07,.17-.12,.45-.04,.25,.07,.51,.16,.63,.34,.03,.04,.2,.11,.36,.14h.04s.03,.03,.03,.03c.07,0,.12-.01,.17-.02,.07-.01,.14-.03,.21-.03,0,0,0,0,0,0,.02-.15,.08-.23,.19-.23,.06,0,.11,.03,.14,.06,.07,.05,.19,0,.2,0h.05s.02-.14-.01-.22l-.08-.19h.21c.16-.01,.38-.05,.44-.09,.03-.02,.02-.11,0-.18,0-.05-.01-.1-.01-.16,0,0-.02-.01-.03-.02-.13-.07-.17-.16-.14-.27,0,0-.04-.04-.08-.07l-.13-.12,.14-.11c.06-.05,.13-.11,.16-.15-.02-.02-.06-.05-.09-.07l-.15-.08,.1-.13c.06-.07,.11-.17,.14-.22-.01,0-.03,0-.03,0l-.23-.02,.12-.2s.07-.13,.09-.22h-.03c-.11,0-.16-.05-.18-.09l-.04-.07,.04-.07s0-.01,0-.02l-.4,.26,.23-.47c.05-.09,.04-.22,.02-.31,0,.01-.02,.02-.02,.03-.16,.21-.43,.56-.89,.99-.22,.2-.53,.5-.6,.59,0,.04,0,.1,.02,.12,.1,.09,.23,.22,.23,.39,0,.06-.02,.15-.12,.24-.11,.09-.29,.15-.48,.15-.22,0-.38-.07-.44-.2-.1-.19,.05-.31,.12-.36-.01-.01-.03-.02-.04-.03-.09-.07-.18-.16-.21-.28,0-.04-.03-.08-.05-.12-.06-.13-.13-.28-.06-.44,.01-.02,.02-.03,.03-.05,.04-.13,.12-.33,.39-.33h0c.15,0,.26,.04,.33,.09,.04-.08,.06-.14,.06-.14l.07-.21,.17,.14s.06,.04,.08,.04c0,0,.01-.05,0-.06-.11-.12-.2-.38-.05-.54,0,0,0,0,0,0,0,0,0,0,0,0h-.05c-.09,0-.14-.04-.16-.07-.06-.08-.03-.18-.01-.25,0-.02,.02-.06,.02-.07,0-.12-.09-.18-.19-.24-.05-.03-.11-.06-.14-.12,0-.01-.01-.02-.01-.03,0,.18-.17,.21-.28,.22,0,0,0,.02,0,.03,0,.07-.03,.25-.22,.26-.12,0-.2-.05-.26-.14-.09-.13-.11-.33-.05-.49,.05-.12,.01-.21,0-.21h0s-.05-.08-.26-.11l-.12-.02-.12,.02c-.22,.04-.3,.13-.31,.15h0s-.03,.08,.02,.19c.06,.15,.04,.35-.05,.48-.06,.09-.15,.14-.24,.14-.21-.02-.23-.2-.24-.26,0,0,0-.02,0-.03-.1,0-.27-.03-.28-.2,0,0,0-.02,0-.02,0,.01,0,.02-.01,.03-.03,.05-.08,.08-.14,.12-.11,.06-.19,.12-.19,.24,0,.01,.01,.05,.02,.07,.02,.08,.05,.17-.01,.25-.02,.03-.07,.07-.16,.07h-.05s0,0,0,0c0,0,0,0,0,0,.15,.16,.05,.42-.05,.54,0,.01,0,.05,.01,.06,.01,0,.05-.03,.07-.04l.17-.14,.07,.21s.02,.05,.06,.13c.07-.05,.17-.12,.31-.12,.29,.01,.36,.23,.41,.36,0,.03,.02,.05,.03,.08,.07,.16,0,.31-.06,.44-.02,.04-.04,.08-.05,.12-.03,.12-.13,.2-.21,.28-.01,0-.02,.02-.04,.03,.07,.05,.21,.17,.12,.36-.06,.12-.22,.2-.44,.2-.19,0-.37-.06-.48-.15-.1-.08-.12-.18-.12-.24,0-.17,.13-.29,.21-.37,.04-.04,.05-.1,.04-.14-.07-.08-.38-.39-.6-.59-.46-.42-.73-.77-.89-.99,0-.01-.02-.02-.02-.03-.02,.09-.02,.22,.02,.31l.23,.47-.4-.26s0,.02,0,.02l.04,.07-.04,.07s-.07,.09-.18,.09h-.03c.02,.09,.07,.19,.09,.22l.12,.2-.23,.02s-.02,0-.03,0c.02,.05,.08,.14,.14,.22l.1,.13-.15,.09s-.07,.05-.09,.07c.03,.04,.1,.1,.16,.15l.14,.11-.13,.12s-.07,.08-.07,.1c.04,.08-.01,.17-.14,.25,0,0-.02,.01-.03,.02,0,.05,0,.1,0,.16,0,.07-.02,.16,0,.18,.07,.05,.3,.08,.44,.09h.21s-.08,.2-.08,.2c-.03,.08-.04,.18-.03,.21l.06,.02h0s.13,.04,.19,0c.03-.02,.08-.06,.14-.06,.11,0,.17,.08,.19,.23,0,0,0,0,0,0,.06,0,.14,.01,.21,.03,.05,0,.1,.02,.15,.02l.03-.02h.06c.16-.04,.33-.1,.36-.14,.12-.18,.37-.27,.63-.34,.28-.08,.41-.03,.45,.04,.06,.09,.03,.2,0,.27-.09,.26-.59,.59-.79,.61-.16,.01-.26,.05-.33,.13-.1,.11-.14,.27-.13,.31v.07s-.07,.14-.07,.14h-.07c-.06,0-.09-.03-.13-.05-.05-.04-.13-.1-.25-.1h-.05s-.04-.03-.04-.03h0s-.07,.08-.07,.08c.02,0,.04,.01,.07,.02l.18,.04-.08,.17c-.09,.17-.09,.33-.07,.37,.02,.02,.18,.12,.3,.19l.05,.03,.02,.05c.02,.06,.05,.12,.07,.16,0-.07-.01-.23-.04-.37l-.03-.14,.69-.14c.09-.02,.38-.12,.48-.26,.04-.06,.07-.12,.1-.18,.09-.18,.19-.4,.42-.4Zm1.46-.73c.1,.14,.41,.35,.51,.36,.16,.01,.36,.05,.53,.22,.14,.16,.23,.41,.2,.57,0,.01,.01,.02,0,.03,.07-.16,.1-.26,.39-.31h0s-.29-.22-.29-.22l.2-.16s-.08,.01-.11,.02c-.15,.03-.29,.04-.38-.02-.13-.03-.42-.1-.52-.26-.07-.1-.28-.17-.46-.22-.02,0-.05-.01-.08-.02Zm-3.39,.85c.08,0,.14,.03,.2,.06,.03-.11,.1-.23,.18-.32,.16-.18,.37-.21,.53-.22,.09-.01,.4-.22,.51-.36-.03,0-.06,.02-.08,.02-.18,.05-.39,.12-.46,.22-.1,.16-.39,.23-.52,.26-.09,.05-.23,.04-.37,.02-.05-.01-.11-.02-.16-.02h-.06c-.11,0-.18-.06-.21-.17-.07,.02-.15,.03-.22,.02l.67,.52Zm3.63-1.97s.08,.02,.15,.02c.12,0,.23-.03,.29-.08,.02-.04-.02-.09-.1-.17-.16-.15-.15-.38-.12-.46,.03-.09,.44-.48,.68-.7,.15-.13,.27-.26,.38-.38-.19,0-.23-.18-.25-.26,0-.03-.02-.1-.04-.11-.04,0-.11,.01-.23,.14,0,.02,.02,.11,.06,.15,.06,.07,.09,.18,.07,.28s-.08,.19-.17,.24c-.07,.04-.16,.04-.23,.01-.02,.03-.04,.07-.06,.11-.06,.09-.14,.11-.18,.11-.08,0-.14-.04-.19-.08-.05-.04-.1-.07-.15-.07-.06,0-.08,.02-.13,.16-.01,.04-.02,.07-.04,.1-.02,.04,.03,.13,.06,.2,.03,.06,.05,.12,.07,.17,0,.03,.08,.09,.12,.12,.08,.07,.16,.14,.18,.24,.02,.13-.09,.21-.14,.25,0,0,0,0-.02,.01Zm-3.73-1.78c.11,0,.24,.25,.38,.39,.24,.22,.65,.61,.68,.7,.03,.08,.04,.31-.1,.45l-.02,.02c-.08,.07-.12,.12-.12,.15,.07,.07,.19,.1,.31,.1,.07,0,.12-.01,.15-.02,0,0-.01,0-.01-.01-.06-.04-.17-.12-.14-.25,.02-.1,.1-.17,.18-.24,.04-.03,.11-.09,.12-.12,.01-.05,.04-.11,.07-.17,.03-.06,.07-.16,.06-.2-.01-.03-.03-.07-.04-.1-.05-.14-.06-.15-.12-.16h0c-.06,0-.1,.03-.15,.07-.05,.04-.11,.08-.19,.08-.04,0-.12-.01-.18-.11-.02-.04-.05-.08-.06-.11-.07,.02-.16,.02-.23-.01-.09-.04-.15-.13-.17-.24-.02-.1,0-.21,.07-.28,.04-.04,.07-.13,.06-.16-.12-.13-.18-.14-.21-.14-.04,.01-.05,.07-.06,.1-.02,.08-.07,.25-.25,.25h0Zm4.7-.64c.05,0,.11,.01,.15,.04,.13,.07,.17,.2,.19,.29,0,0,0,0,0,0,.03-.03,.06-.07,.06-.11,0-.02,0-.02-.03-.05-.03-.03-.09-.1-.08-.19,0-.08,.05-.13,.12-.16-.01-.03-.03-.06-.05-.06,0,0-.03,.01-.04,.02-.07,.04-.22,.06-.29-.04-.1-.15-.16-.13-.18-.11-.02,.02-.02,.04-.02,.05,.05,.07,.06,.19,.02,.3,0,.02-.02,.03-.02,.05,.05-.02,.11-.04,.17-.04Zm-4.8-.18c.08,.03,.12,.08,.13,.16,0,.1-.05,.16-.08,.19-.03,.03-.03,.03-.03,.05,0,.04,.03,.08,.06,.11,0,0,0,0,0,0,.02-.09,.06-.23,.19-.29,.1-.05,.22-.04,.32,0,0-.02-.02-.03-.02-.05-.05-.11-.04-.23,.02-.31,0,0,0-.02-.02-.04-.02-.02-.08-.04-.18,.11-.07,.1-.21,.08-.29,.04-.01,0-.04-.02-.05-.02,0,0-.03,.04-.04,.06Z"/>
  </g>
  <g>
    <path class="cls-4" d="M89.6,23.25s-.09-.04-.12-.17c-.03-.13-.08-.29-.25-.49s-.05-.49,.1-.57c.15-.07,.26-.31,.26-.31,0,0,.12,.23,.27,.31s.27,.36,.1,.56c-.17,.2-.22,.36-.25,.5-.03,.13-.12,.17-.12,.17Z"/>
    <path class="cls-5" d="M89.6,23.41l-.06-.02s-.16-.07-.21-.27c-.02-.11-.06-.25-.22-.43-.1-.12-.14-.28-.1-.44,.03-.16,.13-.3,.26-.36,.08-.04,.16-.18,.19-.24l.13-.27,.14,.26c.03,.06,.12,.2,.21,.24,.13,.06,.22,.2,.26,.35,.03,.16,0,.31-.11,.44-.15,.18-.19,.32-.22,.43-.04,.2-.19,.27-.21,.28l-.06,.02Zm0-1.43c-.05,.07-.12,.13-.2,.17-.04,.02-.08,.08-.1,.15-.01,.05-.01,.12,.04,.19,.15,.18,.22,.34,.26,.47,.04-.13,.11-.29,.26-.47,.05-.06,.05-.14,.04-.18-.02-.07-.06-.13-.1-.15-.08-.04-.15-.1-.2-.17Z"/>
  </g>
  <g>
    <path class="cls-6" d="M88.95,75.75s.83,.02,1.33,.01"/>
    <path class="cls-5" d="M90.05,75.91c-.48,0-1.1-.01-1.11-.01v-.29s.84,.02,1.33,.01v.29c-.07,0-.14,0-.22,0Z"/>
  </g>
  <rect class="cls-5" x="88.99" y="75.43" width="1.18" height=".29"/>
  <g>
    <path class="cls-6" d="M88.77,72.97s.73-.01,1.66,0"/>
    <path class="cls-5" d="M90.43,73.12c-.92-.02-1.65,0-1.66,0v-.29s.73-.01,1.66,0v.29Z"/>
  </g>
  <g>
    <line class="cls-7" x1="88.97" y1="72.23" x2="90.24" y2="72.23"/>
    <rect class="cls-5" x="88.99" y="72.09" width="1.18" height=".29"/>
  </g>
  <g>
    <path class="cls-6" d="M89,68.46s.49-.14,1.2,0"/>
    <path class="cls-5" d="M90.17,68.61c-.66-.13-1.13,0-1.13,0l-.08-.28s.53-.14,1.26,0l-.06,.29Z"/>
  </g>
  <g>
    <line class="cls-7" x1="89.17" y1="67.52" x2="90.09" y2="67.52"/>
    <rect class="cls-5" x="89.28" y="67.37" width=".88" height=".29"/>
  </g>
  <g>
    <line class="cls-7" x1="88.54" y1="64.2" x2="90.61" y2="64.18"/>
    <rect class="cls-5" x="88.54" y="64.04" width="2.07" height=".29" transform="translate(-.38 .53) rotate(-.34)"/>
  </g>
  <g>
    <path class="cls-6" d="M88.71,52.1s.78,.14,1.78,0"/>
    <path class="cls-5" d="M89.58,52.3c-.52,0-.87-.06-.89-.06l.05-.29s.77,.13,1.73,0l.04,.29c-.34,.05-.66,.06-.93,.06Z"/>
  </g>
  <g>
    <path class="cls-6" d="M88.54,48.57s.71-.01,2.13,0"/>
    <path class="cls-5" d="M88.54,48.72v-.29s.72-.01,2.12,0v.29c-1.4,0-2.12,0-2.12,0Z"/>
  </g>
  <g>
    <line class="cls-7" x1="88.7" y1="47.81" x2="90.5" y2="47.8"/>
    <rect class="cls-5" x="88.7" y="47.66" width="1.8" height=".29"/>
  </g>
  <rect class="cls-5" x="88.99" y="44.78" width="1.18" height=".29"/>
  <g>
    <line class="cls-7" x1="89.37" y1="32.18" x2="89.84" y2="32.19"/>
    <rect class="cls-5" x="89.46" y="31.96" width=".29" height=".46" transform="translate(56.72 121.54) rotate(-89.55)"/>
  </g>
  <g>
    <line class="cls-7" x1="89.13" y1="30.81" x2="90.07" y2="30.81"/>
    <rect class="cls-5" x="89.45" y="30.34" width=".29" height=".94" transform="translate(58.55 120.33) rotate(-89.85)"/>
  </g>
  <g>
    <line class="cls-7" x1="89.14" y1="30.52" x2="90.08" y2="30.52"/>
    <rect class="cls-5" x="89.28" y="30.37" width=".88" height=".29"/>
  </g>
  <g>
    <path class="cls-6" d="M88.48,28.2s1.02,.33,2.3-.02"/>
    <path class="cls-5" d="M89.57,28.48c-.66,0-1.11-.14-1.13-.15l.09-.28s.99,.31,2.22-.02l.08,.28c-.46,.13-.89,.17-1.25,.17Z"/>
  </g>
  <g>
    <path class="cls-6" d="M89.87,25.33s.22,0,.07,0-.35,.22-.35,.22c0,0-.18-.22-.35-.22h-.26v-1.18h.88v1.18Z"/>
    <path class="cls-5" d="M89.59,25.62l-.11-.13c-.06-.07-.17-.16-.24-.16h-.26v-1.47h1.18v1.47h-.22s-.17,.09-.24,.17l-.11,.13Zm-.31-.58c.12,.01,.24,.09,.32,.16,.07-.06,.17-.13,.27-.15v-.89h-.59v.89Z"/>
  </g>
</svg>