<?xml version="1.0" encoding="UTF-8"?>
<svg id="_Слой_1" data-name="Слой 1" xmlns="http://www.w3.org/2000/svg" viewBox="0 0 185.25 100">
  <defs>
    <style>
      .cls-1 {
        fill: #1f3b72;
      }
    </style>
  </defs>
  <path class="cls-1" d="M90.7,76.11c-1.63-.71-1.75-1.71-.35-3.22,2.79-3.02,5.86-5.67,9.38-7.77,1.51-.9,2.45-1.04,3.85-.53,2.29,.85,1.68,1.57-1.43,3.29,2.93-.75,5.9-1.34,8.93-1.3,2.63,.04,3.73,1.8,.84,4.13-1.62,1.31-3.77,3.08-5.27,4.39-.67,.59-.23,.82,.09,.82,3.06,.08,6.64-1.21,12.29-4.34,.93-.52,1.95-1.37,2.98-.66,1.1,.75-.37,2.54-3.04,3.71-7.54,3.31-12.39,3.89-15.93,2.91-3.4-.95-1.59-4.92,2.24-7.04,1.12-.62,.79-.99-.53-.88-3.36,.3-6.58,2.45-9.28,5.15-1.88,1.88-3.39,1.93-4.76,1.33m-24.29-28.34c-.28-.75-.43-1.55-.43-2.4,0-3.23,2.25-5.95,5.26-6.67v-3.21c-4.76,.77-8.41,4.91-8.41,9.88,0,1.6,.38,3.11,1.05,4.45l2.53-2.06h0Zm11.12,2.61c-1.23,1.15-2.88,1.86-4.69,1.86s-3.46-.71-4.69-1.86l-2.38,2.07c1.81,1.81,4.32,2.94,7.07,2.94s5.18-1.09,6.98-2.85l-2.29-2.16Zm-3.02-11.66c2.97,.75,5.19,3.45,5.19,6.66,0,.84-.15,1.65-.43,2.4h0s2.53,2.06,2.53,2.06c.67-1.34,1.05-2.86,1.05-4.45,0-4.93-3.6-9.05-8.3-9.86l-.03,3.21Zm-1.67,6.15c-1.13,1.76-2.85,4.06-4.69,5.5-.75-.73-1.4-1.64-1.75-2.61,2.08-2,4.72-5.22,4.78-9.05,1.09-.27,2.22-.27,3.31,0,.06,3.83,2.7,7.04,4.78,9.05-.34,.97-.99,1.88-1.74,2.61-1.83-1.44-3.56-3.74-4.69-5.5Zm30.24,10.45c6.72-5.83,11.82-9.61,16.31-11.85,.04,.71,.03,1.44-.05,2.18-.65,5.91-4.92,9.88-11.41,10.29-1.72,.11-3.33-.1-4.84-.62Zm-57.06,11.9c-.63,.61-.62,1.23,.07,1.82,5.36,4.64,11.47,6.14,17.36,6.37,7.19,.28,23.32-5.46,35.36-16.32,.88-.79,1.72-1.55,2.55-2.28,1.93,.96,4.21,1.49,6.83,1.58,5.89,.19,13.5-3.58,14.29-12.88,.1-1.15,.05-2.27-.11-3.34,4.59-1.69,8.76-1.74,13.76-.79,.58-1.33-.14-2.73-2.45-3.15-4.45-.81-8.64-.73-12.52-.04-4.34-9.23-18.25-14.87-31.03-16.21-22-2.31-36.74,6.64-37.81,22.62-.43,6.4,3.83,11.67,12.39,14.71,1.5,.53,2.72,.44,3.29-.91-5.69-2.37-8.3-6.89-7.84-13.16,.99-13.46,12.67-21.09,29.76-19.89,13.51,.96,24.64,6,28.25,13.51-8.79,2.34-15.91,7.65-20.99,12.19-.45-.54-.89-1.13-1.31-1.75-.63,.44-.66,1.05-.21,1.89,.15,.28,.31,.55,.47,.82-.56,.51-1.09,1.02-1.59,1.5-11.67,11.18-20.68,16.98-30.67,18.27-6.65,.86-13.02-1.49-17.85-4.55Z"/>
</svg>