<?xml version="1.0" encoding="UTF-8"?>
<svg id="_Слой_1" data-name="Слой 1" xmlns="http://www.w3.org/2000/svg" viewBox="0 0 185.25 100">
  <defs>
    <style>
      .cls-1 {
        fill: #5d1f15;
      }

      .cls-2 {
        fill: #edede3;
      }

      .cls-3 {
        fill: #aa881f;
      }

      .cls-4 {
        fill: #177a9f;
      }

      .cls-5 {
        fill: #83bfc5;
      }

      .cls-6 {
        fill: #ee2318;
      }

      .cls-7 {
        fill: #43696c;
      }

      .cls-8 {
        fill: #a9c4ba;
      }

      .cls-9 {
        fill: #836519;
      }

      .cls-10 {
        fill: #e3d889;
      }

      .cls-11 {
        fill: #682f0c;
      }

      .cls-12 {
        fill: #2290ba;
      }

      .cls-13 {
        fill: #b08d20;
      }

      .cls-14 {
        fill: #a79364;
      }

      .cls-15 {
        fill: #b49475;
      }

      .cls-16 {
        fill: #908039;
      }

      .cls-17 {
        fill: #375e6f;
      }

      .cls-18 {
        fill: #a1873b;
      }

      .cls-19 {
        fill: #eef4f2;
      }

      .cls-20 {
        fill: #86370d;
      }

      .cls-21 {
        fill: #870e0b;
      }

      .cls-22 {
        fill: #b18f1d;
      }

      .cls-23 {
        fill: #a89b8a;
      }

      .cls-24 {
        fill: #bfb263;
      }

      .cls-25 {
        fill: #158698;
      }

      .cls-26 {
        fill: #dbbe7b;
      }

      .cls-27 {
        fill: #6c5d35;
      }

      .cls-28 {
        fill: #78601b;
      }

      .cls-29 {
        fill: #734518;
      }

      .cls-30 {
        fill: #1d6f84;
      }

      .cls-31 {
        fill: #c23425;
      }

      .cls-32 {
        fill: #bc3844;
      }

      .cls-33 {
        fill: #d5c681;
      }

      .cls-34 {
        fill: #f5f4da;
      }

      .cls-35 {
        fill: #611b15;
      }

      .cls-36 {
        fill: #a43824;
      }

      .cls-37 {
        fill: #ead6c5;
      }

      .cls-38 {
        fill: #958c5d;
      }

      .cls-39 {
        fill: #52808e;
      }

      .cls-40 {
        fill: #efbb26;
      }

      .cls-41 {
        fill: #f5eec0;
      }

      .cls-42 {
        fill: #d07513;
      }

      .cls-43 {
        fill: #ad370e;
      }

      .cls-44 {
        fill: #e1310f;
      }

      .cls-45 {
        fill: #17506f;
      }

      .cls-46 {
        fill: #e2bc51;
      }

      .cls-47 {
        fill: #385d65;
      }

      .cls-48 {
        fill: #b47835;
      }

      .cls-49 {
        fill: #eecb1e;
      }

      .cls-50 {
        fill: #197598;
      }

      .cls-51 {
        fill: #4d1a16;
      }

      .cls-52 {
        fill: #1c6377;
      }

      .cls-53 {
        fill: #691311;
      }

      .cls-54 {
        fill: #3b7990;
      }

      .cls-55 {
        fill: #eb7d7f;
      }

      .cls-56 {
        fill: #e0d6b7;
      }

      .cls-57 {
        fill: #a77e36;
      }

      .cls-58 {
        fill: #187ba1;
      }

      .cls-59 {
        fill: #2d7f98;
      }

      .cls-60 {
        fill: #b8c6c8;
      }

      .cls-61 {
        fill: #e42d18;
      }

      .cls-62 {
        fill: #bf9628;
      }

      .cls-63 {
        fill: #4883a3;
      }

      .cls-64 {
        fill: #e6dbb7;
      }

      .cls-65 {
        fill: #af9227;
      }

      .cls-66 {
        fill: #b32a1e;
      }

      .cls-67 {
        fill: #94997d;
      }

      .cls-68 {
        fill: #e0cb7a;
      }

      .cls-69 {
        fill: #e8aa5f;
      }

      .cls-70 {
        fill: #9f2514;
      }

      .cls-71 {
        fill: #2f5f62;
      }

      .cls-72 {
        fill: #f31f15;
      }

      .cls-73 {
        fill: #407e97;
      }

      .cls-74 {
        fill: #3f545b;
      }

      .cls-75 {
        fill: #48829a;
      }

      .cls-76 {
        fill: #918b65;
      }

      .cls-77 {
        fill: #ee282e;
      }

      .cls-78 {
        fill: #969b67;
      }

      .cls-79 {
        fill: #943e42;
      }

      .cls-80 {
        fill: #b58f24;
      }

      .cls-81 {
        fill: #187ba0;
      }

      .cls-82 {
        fill: #f3e3dc;
      }

      .cls-83 {
        fill: #927222;
      }

      .cls-84 {
        fill: #397d96;
      }

      .cls-85 {
        fill: #153e6c;
      }

      .cls-86 {
        fill: #9e3d2c;
      }

      .cls-87 {
        fill: #1d97c1;
      }

      .cls-88 {
        fill: #548192;
      }

      .cls-89 {
        fill: #386079;
      }

      .cls-90 {
        fill: #f9faf9;
      }

      .cls-91 {
        fill: #16537d;
      }

      .cls-92 {
        fill: #79681a;
      }

      .cls-93 {
        fill: #6e7f52;
      }

      .cls-94 {
        fill: #b81f1a;
      }

      .cls-95 {
        fill: #ad911b;
      }

      .cls-96 {
        fill: #cfa921;
      }

      .cls-97 {
        fill: #1d8db7;
      }

      .cls-98 {
        fill: #9f9054;
      }

      .cls-99 {
        fill: #8e7c2e;
      }

      .cls-100 {
        fill: #2d7e98;
      }

      .cls-101 {
        fill: #e4bf1c;
      }

      .cls-102 {
        fill: #3e7e93;
      }

      .cls-103 {
        fill: #2191bb;
      }

      .cls-104 {
        fill: #4d6959;
      }

      .cls-105 {
        fill: #9a7b1c;
      }

      .cls-106 {
        fill: #947a2e;
      }

      .cls-107 {
        fill: #f22116;
      }

      .cls-108 {
        fill: #77310b;
      }

      .cls-109 {
        fill: #14475e;
      }

      .cls-110 {
        fill: #ece3df;
      }

      .cls-111 {
        fill: #ceb530;
      }

      .cls-112 {
        fill: #3c7887;
      }

      .cls-113 {
        fill: #894e13;
      }

      .cls-114 {
        fill: #d6c073;
      }

      .cls-115 {
        fill: #a48d5a;
      }

      .cls-116 {
        fill: #957e33;
      }

      .cls-117 {
        fill: #8e6d17;
      }

      .cls-118 {
        fill: #704a14;
      }

      .cls-119 {
        fill: #832c1b;
      }

      .cls-120 {
        fill: #154470;
      }

      .cls-121 {
        fill: #6e1e18;
      }

      .cls-122 {
        fill: #e6e9e4;
      }

      .cls-123 {
        fill: #a69973;
      }

      .cls-124 {
        fill: #de2726;
      }

      .cls-125 {
        fill: #a18535;
      }

      .cls-126 {
        fill: #236c5e;
      }

      .cls-127 {
        fill: #144569;
      }

      .cls-128 {
        fill: #cd2d11;
      }

      .cls-129 {
        fill: #41686f;
      }

      .cls-130 {
        fill: #ef706a;
      }

      .cls-131 {
        fill: #a97e11;
      }

      .cls-132 {
        fill: #c77113;
      }

      .cls-133 {
        fill: #92833d;
      }

      .cls-134 {
        fill: #1f829f;
      }

      .cls-135 {
        fill: #a85512;
      }

      .cls-136 {
        fill: #4d87a9;
      }

      .cls-137 {
        fill: #f2f1cb;
      }

      .cls-138 {
        fill: #edde7a;
      }

      .cls-139 {
        fill: #e9231c;
      }

      .cls-140 {
        fill: #e0ac9f;
      }

      .cls-141 {
        fill: #75613d;
      }

      .cls-142 {
        fill: #f1cc2d;
      }

      .cls-143 {
        fill: #164b73;
      }

      .cls-144 {
        fill: #8c2718;
      }

      .cls-145 {
        fill: #5f2522;
      }

      .cls-146 {
        fill: #f2eabb;
      }

      .cls-147 {
        fill: #247e90;
      }

      .cls-148 {
        fill: #187c9f;
      }

      .cls-149 {
        fill: #8bb9be;
      }

      .cls-150 {
        fill: #174b77;
      }

      .cls-151 {
        fill: #ecd8d1;
      }

      .cls-152 {
        fill: #f1eeea;
      }

      .cls-153 {
        fill: #9f7f2d;
      }

      .cls-154 {
        fill: #741410;
      }

      .cls-155 {
        fill: #78651a;
      }

      .cls-156 {
        fill: #967c27;
      }

      .cls-157 {
        fill: #c8635f;
      }

      .cls-158 {
        fill: #537d97;
      }

      .cls-159 {
        fill: #556119;
      }

      .cls-160 {
        fill: #b86b61;
      }

      .cls-161 {
        fill: #ce380f;
      }

      .cls-162 {
        fill: #cea518;
      }

      .cls-163 {
        fill: #551a17;
      }

      .cls-164 {
        fill: #d52723;
      }

      .cls-165 {
        fill: #872f22;
      }

      .cls-166 {
        fill: #9c3f14;
      }

      .cls-167 {
        fill: #989c7a;
      }

      .cls-168 {
        fill: #e62525;
      }

      .cls-169 {
        fill: #dad3d9;
      }

      .cls-170 {
        fill: #e7e0cc;
      }

      .cls-171 {
        fill: #55672a;
      }

      .cls-172 {
        fill: #518b9f;
      }

      .cls-173 {
        fill: #edd0c0;
      }

      .cls-174 {
        fill: #29768d;
      }

      .cls-175 {
        fill: #548ba2;
      }

      .cls-176 {
        fill: #184a6c;
      }

      .cls-177 {
        fill: #7a1a0b;
      }

      .cls-178 {
        fill: #bf7f1b;
      }

      .cls-179 {
        fill: #1f7dab;
      }

      .cls-180 {
        fill: #88352b;
      }

      .cls-181 {
        fill: #f4efbc;
      }

      .cls-182 {
        fill: #f21f14;
      }

      .cls-183 {
        fill: #da3039;
      }

      .cls-184 {
        fill: #f1ebcb;
      }

      .cls-185 {
        fill: #decf9d;
      }

      .cls-186 {
        fill: #176c89;
      }

      .cls-187 {
        fill: #342812;
      }

      .cls-188 {
        fill: #175c7e;
      }

      .cls-189 {
        fill: #8c8861;
      }

      .cls-190 {
        fill: #194f6b;
      }

      .cls-191 {
        fill: #ac9b85;
      }

      .cls-192 {
        fill: #1c8eb9;
      }

      .cls-193 {
        fill: #f21e27;
      }

      .cls-194 {
        fill: #337288;
      }

      .cls-195 {
        fill: #1c91bd;
      }

      .cls-196 {
        fill: #447e94;
      }

      .cls-197 {
        fill: #f22017;
      }

      .cls-198 {
        fill: #80436f;
      }

      .cls-199 {
        fill: #ad8c18;
      }

      .cls-200 {
        fill: #396578;
      }

      .cls-201 {
        fill: #7a1f18;
      }

      .cls-202 {
        fill: #164761;
      }

      .cls-203 {
        fill: #e4c422;
      }

      .cls-204 {
        fill: #9a7420;
      }

      .cls-205 {
        fill: #3e718c;
      }

      .cls-206 {
        fill: #d5aa1b;
      }

      .cls-207 {
        fill: #4f7988;
      }

      .cls-208 {
        fill: #f0201b;
      }

      .cls-209 {
        fill: #9b4d19;
      }

      .cls-210 {
        fill: #883a3b;
      }

      .cls-211 {
        fill: #bd993e;
      }

      .cls-212 {
        fill: #523d16;
      }

      .cls-213 {
        fill: #ecddd8;
      }

      .cls-214 {
        fill: #1e92bd;
      }

      .cls-215 {
        fill: #a79e93;
      }

      .cls-216 {
        fill: #854c17;
      }

      .cls-217 {
        fill: #43676b;
      }

      .cls-218 {
        fill: #b9423e;
      }

      .cls-219 {
        fill: #e3bf27;
      }

      .cls-220 {
        fill: #d7c02f;
      }

      .cls-221 {
        fill: #e9d5cb;
      }

      .cls-222 {
        fill: #e82429;
      }

      .cls-223 {
        fill: #f7f2d0;
      }

      .cls-224 {
        fill: #ae4210;
      }

      .cls-225 {
        fill: #eb241b;
      }

      .cls-226 {
        fill: #c2b24d;
      }

      .cls-227 {
        fill: #296b7f;
      }

      .cls-228 {
        fill: #e68e80;
      }

      .cls-229 {
        fill: #1f5c6e;
      }

      .cls-230 {
        fill: #bca86c;
      }

      .cls-231 {
        fill: #978f88;
      }

      .cls-232 {
        fill: #1f6889;
      }

      .cls-233 {
        fill: #19779d;
      }

      .cls-234 {
        fill: #f41e17;
      }

      .cls-235 {
        fill: #df2c29;
      }

      .cls-236 {
        fill: #da2d26;
      }

      .cls-237 {
        fill: #c3b161;
      }

      .cls-238 {
        fill: #ecc821;
      }

      .cls-239 {
        fill: #1a5268;
      }

      .cls-240 {
        fill: #d8b92a;
      }

      .cls-241 {
        fill: #9b7a32;
      }

      .cls-242 {
        fill: #826418;
      }

      .cls-243 {
        fill: #3d6672;
      }

      .cls-244 {
        fill: #aa5915;
      }

      .cls-245 {
        fill: #2d758a;
      }

      .cls-246 {
        fill: #edebe1;
      }

      .cls-247 {
        fill: #4e7f96;
      }

      .cls-248 {
        fill: #176886;
      }

      .cls-249 {
        fill: #537a83;
      }

      .cls-250 {
        fill: #b39218;
      }

      .cls-251 {
        fill: #691c13;
      }

      .cls-252 {
        fill: #e8aea2;
      }

      .cls-253 {
        fill: #8a7f69;
      }

      .cls-254 {
        fill: #9d8941;
      }

      .cls-255 {
        fill: #177ba3;
      }

      .cls-256 {
        fill: #395b6c;
      }

      .cls-257 {
        fill: #245876;
      }

      .cls-258 {
        fill: #bfa2a4;
      }

      .cls-259 {
        fill: #177ba1;
      }

      .cls-260 {
        fill: #ecbfbe;
      }

      .cls-261 {
        fill: #c77915;
      }

      .cls-262 {
        fill: #385724;
      }

      .cls-263 {
        fill: #9d8427;
      }

      .cls-264 {
        fill: #998835;
      }

      .cls-265 {
        fill: #e62328;
      }

      .cls-266 {
        fill: #f2eaae;
      }

      .cls-267 {
        fill: #e3d5a0;
      }

      .cls-268 {
        fill: #722e0e;
      }

      .cls-269 {
        fill: #998832;
      }

      .cls-270 {
        fill: #662910;
      }

      .cls-271 {
        fill: #ba372c;
      }

      .cls-272 {
        fill: #d89f9b;
      }

      .cls-273 {
        fill: #ede0db;
      }

      .cls-274 {
        fill: #838032;
      }

      .cls-275 {
        fill: #18577e;
      }

      .cls-276 {
        fill: #ccc7c8;
      }

      .cls-277 {
        fill: #86681f;
      }

      .cls-278 {
        fill: #bf2c13;
      }

      .cls-279 {
        fill: #84838a;
      }

      .cls-280 {
        fill: #916813;
      }

      .cls-281 {
        fill: #90392d;
      }

      .cls-282 {
        fill: #e6d1a7;
      }

      .cls-283 {
        fill: #de4139;
      }

      .cls-284 {
        fill: #18598a;
      }

      .cls-285 {
        fill: #174e71;
      }

      .cls-286 {
        fill: #71220b;
      }

      .cls-287 {
        fill: #eba3a0;
      }

      .cls-288 {
        fill: #c02c1b;
      }

      .cls-289 {
        fill: #ba8b16;
      }

      .cls-290 {
        fill: #465c55;
      }

      .cls-291 {
        fill: #ef625e;
      }

      .cls-292 {
        fill: #805e13;
      }

      .cls-293 {
        fill: #f6f6f4;
      }

      .cls-294 {
        fill: #2f6d7f;
      }

      .cls-295 {
        fill: #9c5463;
      }

      .cls-296 {
        fill: #b9ac7a;
      }
    </style>
  </defs>
  <path class="cls-87" d="M92.08,82.51c-1,.52-2.22,.17-3.19,.8-1.73,.25-3.45,.26-5.18,0h.03c-1.93-.85-2.46-1.79-2.2-3.91,.07-.6,.38-1.21,1.01-1,3.08,1.02,5.94-.47,8.91-.69,1.72-.08,3.44-.02,5.15-.01,.52,0,1.03,0,1.55,.04,2.14,.69,4.32,1.07,6.58,.65,.52-.07,1.07-.23,1.4,.39-.06,1.2,.05,2.41-.2,3.6-.38,.61-.89,.99-1.65,.94-1.27,.3-2.56,.07-3.83,.15-1.9-.49-3.82-.9-5.75-1.21-.86-.14-1.79-.28-2.62,.25Z"/>
  <path class="cls-214" d="M71,74.02c-.44-.73-.9-1.46-.61-2.38,.59-2,.32-4.08,.58-6.11-.16-2.95,.46-5.86,.3-8.81-.06-1.09-.72-2.24,.04-3.34,2.12-.69,3.68-.01,3.73,1.92,.11,4.45,.47,8.92-.26,13.36-.11,.98-.63,1.93-.2,2.95,.35,.69,1.03,.68,1.66,.79,.26,.06,.49,.18,.67,.4,.29,.67,.06,1.24-.34,1.77-1.2,.24-2.39,.69-3.65,.35-.59-.41-1.44-.26-1.93-.89Z"/>
  <path class="cls-214" d="M116.4,67.65c.14,.86,.28,1.72,.42,2.58-.08,1.37,.77,2.95-.89,3.96-.75,.16-1.54,.08-2.29,.37-1.38,.53-1.76-.1-1.53-1.38,.01-.24,.06-.48,.15-.71,.08-.13,.19-.24,.32-.33,.32-.18,.62-.39,.74-.77,.41-1.02-.49-1.63-.77-2.44-.06-.28-.06-.56-.01-.84-.34-3.36-.52-6.72-.84-10.08-.13-1.29,.45-2.51,.19-3.78,.09-.6,.47-.94,1.01-1.15,.64-.17,1.29-.24,1.95-.08,.83,.2,1.23,.68,1.16,1.54-.28,3.53-.28,7.06,.19,10.58-.02,.85-.38,1.72,.19,2.52Z"/>
  <path class="cls-97" d="M112.49,73.09c-.03,1.01-.08,1.89,1.34,.89,.44-.31,1.26-.1,1.91-.12,.15,.39-.07,.65-.31,.9-.75,.48-1.45,.99-1.02,2.06-.02,.61-.37,1.01-.82,1.36-.78,.96-1.81,1.47-3.01,1.66-.64,0-1.29,.01-1.93,0-1.01-.24-1.94-.6-2.53-1.52-.22-.38-.25-.82-.34-1.24-.22-.75-.81-.94-1.51-.98-1.49-.35-2.96,.25-4.45,.06-.74-.1-1.64,.06-1.74-1.07,.34-1.24,1.24-1.61,2.44-1.72,2.71-.26,5.26,.2,7.69,1.39,1.38,.32,2.36-.11,2.82-1.51,.46-.43,.94-.52,1.47-.12Z"/>
  <path class="cls-192" d="M74.55,78.95c-.95-.55-1.21-1.55-1.59-2.47-.2-.08-.3-.23-.32-.44,0-.2,.06-.38,.19-.54,.95-.84,2.17-.72,3.24-.66,2.15,.12,4.16-.16,6.03-1.24,.19-.08,.39-.13,.59-.17,1.51-.14,3.02-.1,4.53-.05,1.13,.03,2.03,.41,2.03,1.78-1.49,1.22-3.24,.42-4.87,.61-.97,.11-1.97,.02-2.39,1.19-.21,1.66-1.14,2.61-2.79,2.87-1.63,.14-3.2-.09-4.66-.86Z"/>
  <path class="cls-195" d="M116.44,35.87c-.08,.08-.16,.16-.24,.24-.71,.41-.21,1.07-.34,1.61-.14,3.3,.31,6.62-.26,9.91-1.78,1.45-3.54,1.01-3.81-1.18-.41-3.33-.55-6.72,.37-10.02,.45-1.61,1.65-2.45,3.34-2.54,1.49,.1,1.35,.98,.94,1.98Z"/>
  <path class="cls-12" d="M64.51,34.62c-.33-.1-.43-.35-.48-.66-.65-.65-.82-1.44-.64-2.32,.12-.33,.33-.56,.69-.63,1.1-.32,2.26-.39,3.36-.2,1.79,.3,3.41-.12,5.02-.77,.51-.21,1.11-.25,1.44-.79,.22-.33,.38-.68,.51-1.05,.23-.51,.12-1.16,.65-1.54,.23,.2,.46,.41,.69,.61,.6,1.1,1.96,1.98,1.04,3.53-.29,.96-.95,1.7-1.48,2.52-.35,.46-.81,.71-1.39,.76-1.74,.28-3.49,.2-5.23-.02-.85,.02-1.72-.44-2.55,.09-.51,.25-.88,1.02-1.62,.46Z"/>
  <path class="cls-103" d="M121.08,33.89c-.77-1.13-1.65-.24-2.48-.14-1.15-.23-2.18,.44-3.34,.38-.67-.03-1.3-.08-1.93-.28-1.27-.61-2.08-1.86-3.41-2.4-.79-1.25-.82-2.4,.44-3.38,.33-.26,.66-.52,.99-.79,1.09,.19,1.19,1.27,1.74,1.94,1.46,1.07,3.11,1.55,4.91,1.54,.6,.02,1.19-.05,1.79-.14,.59-.09,1.21-.12,1.79,0,1.03,.22,2.11,.72,2.14,1.85,.03,1.16-.96,1.66-2.09,1.69-.19-.07-.38-.17-.55-.28Z"/>
  <path class="cls-100" d="M68.09,65.75c-2.23,.36-3.29-.4-3.48-2.64-.16-1.82,.11-3.63,.58-5.38,1.45-5.33,1.02-10.64-.1-15.94-.28-1.33-.23-2.64,.1-3.94,.46-.55,.73-1.33,1.65-1.27,.59,.24,1.64-.18,1.52,1.07-2.35,.93-2.45,1-2.01,3.62,.81,4.91,1.37,9.83,.36,14.77-.37,1.84-.72,3.68-.94,5.54-.17,1.46,.23,2.64,1.74,3.2,.37,.22,.64,.49,.56,.97Z"/>
  <path class="cls-162" d="M83.61,19.25c.62-1.13,1.98-1.12,2.84-1.87,1.31-.23,1.34,.72,1.39,1.57,.1,1.62-.17,3.25,.24,4.85-.31,1.23-.98,1.28-1.87,.56-.72-1.13-1.87,.21-2.68-.45-.51-1.56-.74-3.12,.08-4.66Z"/>
  <path class="cls-238" d="M117.88,76.11c1.6,1.09,3.03,2.36,4.23,3.89-.18,.93-.48,1.77-1.53,2.06-.36-.03-.72-.08-1.06-.22-1.67-1.41-2.61-3.42-4.08-4.99,.43-1.51,1.49-.94,2.44-.73Z"/>
  <path class="cls-206" d="M99.78,17.23c.09-.01,.17-.03,.25-.05,1.56,.61,3.43,.71,4.23,2.58-.31,1.44-.05,2.99-.83,4.35-.98,.28-1.89-.5-2.87-.17-.71-.1-1.08-.55-1.25-1.21-.01-1.85-.61-3.74,.46-5.5Z"/>
  <path class="cls-13" d="M117.2,17.5c.12-1.95,1.6-2.9,2.93-3.95,1.18-.62,1.33,.22,1.49,1.05,.03,.72,.02,1.45-.13,2.16-.15,.69,.34,.64,.76,.67,.36,.02,.71,.06,1.04,.2,.26,.13,.45,.32,.6,.56,.16,.36,.17,.72,.03,1.08-.13,.25-.32,.42-.58,.52-1.36-1.25-2.76-.71-4.16-.08-1.34-.13-2.08-.8-1.99-2.21Z"/>
  <path class="cls-3" d="M103.36,24.03c.27-1.48-.16-3.08,.81-4.43,1.83,.55,2.09,2.26,2.72,3.69,.41,1.06-.39,2.19,.17,3.25-1.47,.5-1.82,2.12-2.95,2.95-.04-.07-.09-.14-.13-.21,.03-1.44-.53-2.75-.84-4.12,.03-.38,.28-.59,.58-.76,.48-.02,.9-.14,.86-.76-.46-.01-.53,.55-.86,.78-.32,.05-.46-.05-.35-.38Z"/>
  <path class="cls-250" d="M83.61,19.25c.24,.03,.47,.06,.78,.11-2.03,1.34-.2,3.16-.65,4.69,.46,1.92,.32,2.17-1.47,2.65-.28,.08-.52,.27-.79,.36-.74,.38-1.2-.29-1.12-.67,.41-2.1,.02-4.43,1.64-6.21,.44-.49,.84-1.03,1.62-.93Z"/>
  <path class="cls-49" d="M64.82,81.07c-.17-.77,.3-1.25,.81-1.69,1.55-1.33,3.1-2.65,4.66-3.97,.03-.19,.14-.27,.33-.21,.46,.71,.92,1.42,.42,2.3h0c-.76,.9-1.39,1.9-2.12,2.83-.69,.89-1.37,1.82-2.62,1.97-.85,.01-1.27-.49-1.48-1.23Z"/>
  <path class="cls-80" d="M66.68,13.45c1.41,.88,2.68,1.87,2.91,3.68,.18,1.88-.05,2.17-2,2.54-1.14-.52-2.28-1.05-3.57-1.09-.25-.46-.23-.87,.24-1.19,.63-.11,1.24-.01,1.84,.21-.02-.27-.18-.53-.2-.82-.06-.53-.12-1.06-.28-1.57-.08-.38-.11-.76,.02-1.13,.19-.49,.39-.95,1.06-.63Z"/>
  <path class="cls-23" d="M99.78,17.23c-.02,1.91-.04,3.83-.05,5.74-.33,1.88-.28,3.88-1.84,5.34-.13,.12-.29,.21-.46,.28-.66,.09-1.03-.25-1.23-.84-.09-.48,.07-.89,.31-1.29,.46-.64,.61-1.39,.79-2.13,.65-1.97,1.1-3.95,.51-6.02-.02-.52-.32-1.05,.07-1.54,.71-.15,1.27,.3,1.9,.46Z"/>
  <path class="cls-22" d="M128.17,21.11c-.6,1-1.3,1.9-2.27,2.57-1.09,.41-2.18,.8-3.3,.1,.09-.69-.9-1.08-.54-1.86,.21-.48,.48-.91,.86-1.27,.14-.1,.3-.17,.47-.22,.67-.12,1.32-.29,2.01-.3,.69,.08,1.39-.04,2.08,.09,.51,.09,.93,.23,.69,.89Z"/>
  <path class="cls-59" d="M120.43,36.8c1.3,.57,1.56,1.69,1.56,2.96,0,2.06-.41,4.06-.78,6.07-.57,3.11-.46,6.22,0,9.32,.19,.63,.17,1.27,.05,1.92-1.01,.08-.86-.78-1.02-1.32-1.06-3.63-.71-7.28-.11-10.93,.22-1.37,.45-2.73,.52-4.12,.07-1.51-.34-2.6-1.9-3.02-.48-.63,.11-.68,.46-.79,.39-.12,.82,.19,1.22-.09Z"/>
  <path class="cls-199" d="M63.01,24.43c-1.94-.17-2.84-1.7-3.93-3,.12-.98,.18-.99,1.11-1.18,1.36-.29,2.49,.61,3.77,.68,.49,.02,.83,.25,1.01,.71,.17,.78,.15,1.52-.41,2.17-.46,.35-.9,.77-1.56,.63Z"/>
  <path class="cls-69" d="M91.03,14.55c.06-.62-.13-1.52,.77-1.56,1.19-.05,.28-1.7,1.71-1.79,1.55-.1,.53,1.63,1.53,1.6,1.09-.03,1.07,.68,1.06,1.43-.24,.95-1.29,1.14-1.74,1.89-.56,.14-1.12,.21-1.66-.1-.28-.81-1.37-.71-1.67-1.48Z"/>
  <path class="cls-19" d="M66.69,36.81c-.72,.03-.97,.74-1.49,1.05,.28-.91,.06-1.75-.36-2.56,.18-.18,.41-.23,.63-.14,.22,.09,.4,.23,.55,.41,.01-.25-.27-.32-.31-.53-.07-.4-.07-.8,.19-1.16,.8-.98,1.69-.28,2.56-.14,.73-.21,1.26,.06,1.65,.67,.32,.75,1,1.35,.96,2.26-.73,.78-1.62,.65-2.47,.36-.64-.22-1.27-.23-1.92-.22Z"/>
  <path class="cls-232" d="M79.36,79.62c1.58-.32,1.88-1.61,2.18-2.9,1.67,1.12,3.42,1.68,5.47,1.07,.76-.23,1.48-.4,2.02-1.01,.65-.34,.84,.42,1.3,.54,.4,.23,1.11,.1,1.03,.89-1.7,.31-3.4,.64-5.11,.91-.7,.11-1.44,.03-2.14,.18-.75,.16-1.52-1.21-2.13-.08-.64,1.22,.1,2.9,1.4,3.72,.14,.09,.24,.26,.35,.39-1.48-.09-2.54-.57-2.34-2.35,.1-.84-.22-1.38-1.19-1.24-.3,.11-.59,.18-.84-.1Z"/>
  <path class="cls-191" d="M87.76,24.07c-.53-1.79-.41-3.63-.38-5.45,0-.73-.19-1.14-.92-1.23,.89-.22,1.78-.43,2.67-.65,.53,.47,.18,1.05,.19,1.58-.25,1.25,.03,2.5-.01,3.75-.01,.59,.19,1.18,.11,1.78-.45,.53-.22,1.5-1.11,1.75-.78-.3-.36-1.02-.54-1.53Z"/>
  <path class="cls-277" d="M81.48,27.07c.09-.35,.19-.88,.55-.83,1.89,.26,1.45-1.22,1.71-2.18,.86-.37,1.71-1.62,2.6-.04,.06,.56-1.18,.35-.69,1.17-.22,.46-.69,.67-1.03,1.01-.7,.71-.86,1.42-.08,2.19,.25,.25,.51,.54,.23,.94-.53,.47-1.12,.51-1.74,.21-1.56-.16-.77-1.81-1.56-2.46Z"/>
  <path class="cls-254" d="M64.51,17.49c-.45,.25-.4,.68-.41,1.09,.54,.61,.26,1.17-.1,1.73-.12,.13-.26,.2-.43,.23-.61-.28-1.09-.91-1.89-.71-.72-.33-1.41-.69-1.27-1.67l.37-.38c.26-.27,.61-.3,.96-.33,.43-.12,1.19,.31,1.09-.68,.07-.59-.29-1.24,.25-1.76,.1-.03,.2-.04,.3-.03,.31-.19,.61-.08,.92,.02,.55,.22,1.13,.26,1.71,.34,.42,.4,.25,.93,.3,1.41-.58,.31-1.29,.3-1.8,.76Z"/>
  <path class="cls-84" d="M121.15,57.15c.02-.67,.04-1.33,.06-2,.76,2.6,1.23,5.24,1.09,7.96-.12,2.3-1.11,3.08-3.37,2.77-1.42-.2-2.85-.48-2.54,1.78-1.22-.42-.47-1.45-.67-2.18,.21-.18,.45-.32,.73-.38,.18-.04,.36-.06,.54-.06,.72,0,1.44-.01,2.14-.26,1.81-.44,2.12-.93,2.06-2.89-.04-1.58-.61-3.15-.05-4.73Z"/>
  <path class="cls-54" d="M77.47,30.9c.82-.39,1.65-.69,2.58-.72,2.47-.08,2.61,.02,3.1,2.49,.08,.29-.07,.47-.3,.59-.47,.1-.94-.17-1.42-.03-.35-.08-.5-.36-.66-.64-.46-.76-.97-.21-1.47-.05-.56,.05-1.06-.09-1.53-.4-.37-.35-.56-.75-.3-1.26Z"/>
  <path class="cls-205" d="M107.71,30.21c.11,.06,.22,.08,.34,.05,.23,.27,1.09,0,.7,.81-.54,.38-1.17,.3-1.77,.35-.83,.04-.77,.55-.57,1.12-.22,.95-.57,1.81-1.54,2.25-.35,.12-.69,.13-1.04,.01-.25-.1-.43-.28-.55-.51-.12-.71,.48-1.37,.17-2.1-.06-.55,.06-1.01,.58-1.3,.33-.34,.67-.65,1.17-.71,.84-.55,1.69-.21,2.53,0Z"/>
  <path class="cls-65" d="M70.04,21.16c.96,.7,.71,1.6,.39,2.5-.07,.51-.37,.83-.8,1.06-1.21,.4-2.2,.32-2.57-1.15-.02-.17,0-.34,.02-.51,.9-.52-.24-.77-.17-1.19,.18-.52,.55-.82,1.06-.98,.56-.07,1.11,.05,1.67,.02,.16,.04,.29,.12,.4,.25Z"/>
  <path class="cls-175" d="M121.56,33.9c.99-.04,1.94-.47,1.86-1.48-.08-.92-1.07-1.38-2.02-1.43-1.25-.06-2.51-.01-3.77-.01-.11-.09-.15-.18-.12-.28,.03-.1,.06-.15,.09-.15,1.13-.11,2.26-.26,3.39-.3,1.56-.05,2.64,.76,3.22,2.16,.46,1.1,.13,1.5-1.13,1.83-.3,.08-.52,.47-.78,.72-.58-.12-1.22-.2-.74-1.06Z"/>
  <path class="cls-137" d="M106.57,23.43c-.53-1.45-1.16-2.83-2.4-3.83-1.16-1.19-2.88-1.41-4.14-2.43,3.19-.1,6.96,2.82,6.99,5.41-.04,.34-.07,.68-.44,.85Z"/>
  <path class="cls-230" d="M60.41,18.16c.36,.62,.83,1.13,1.46,1.5,.55,.16,1.01,.52,1.54,.74,.1,0,.2,0,.3,.03,.31,.14,.42,.4,.41,.73-.56,.51-.97,.18-1.57-.07-1.14-.48-2.45-1.06-3.46,.36-.71-1.3-.04-2.96,1.33-3.28Z"/>
  <path class="cls-95" d="M118.99,25.14c-.17-.03-.33-.07-.5-.1-.85-.1-1.61-.33-1.7-1.38-.12-.35-.25-.7-.37-1.06,.18-1.16,1.36-.75,1.96-1.26,.17-.06,.34-.1,.51-.11,.18,0,.35,.04,.51,.1,.47,.28,.81,.65,.89,1.21,0,.35-.15,.65-.31,.95-.52,.43,.04,1.53-1,1.65Z"/>
  <path class="cls-149" d="M116.79,23.66c.57,.46,1.13,.92,1.7,1.38-.51,.91-1.65,1.25-2.08,2.23-.53,.22-.62-.28-.86-.52-.15-.25-.46-.36-.61-.62,.06-1.25,.22-2.42,1.86-2.48Z"/>
  <path class="cls-227" d="M68.09,65.75c-.11-.2-.22-.41-.33-.61,.39-.57,.64-1.25,1.3-1.59,.25,0,.45,.12,.65,.26,.41,.36,.95,.52,1.37,.86,.21,.35,.03,.78,.2,1.14-.36,1.45-.22,2.92-.28,4.39-.02,.54,.24,1.24-.6,1.45-.39-1.44,.21-2.83,.28-4.25,.07-1.35-.18-2.04-1.68-1.67-.28,.07-.59,.02-.89,.02Z"/>
  <path class="cls-246" d="M91.03,14.55c.6,.51,2.13-.2,1.89,1.43,.51,.76,.1,1.44-.19,2.13-.54,.74-1.08,.68-1.51-.08-.42-.73-.88-1.4-1.61-1.86-.02-.97,1.46-.63,1.42-1.62Z"/>
  <path class="cls-111" d="M72.47,25.74c.22,.16,.44,.32,.66,.48,.38,.26,.59,.64,.8,1.04,.49,1.03,.35,1.79-.91,2.04-.47-.02-.83-.27-1.18-.56-.43-.39-.99-.66-1.21-1.25v-.4c.07-1.19,.65-1.69,1.84-1.35Z"/>
  <path class="cls-220" d="M114.94,26.14c.46-.12,.82-.04,1,.45-.1,.35,.04,.7-.02,1.05-.29,.67-.7,1.26-1.27,1.73-.73,.46-1.41,.5-1.96-.29-.41-1.25,.23-2,1.22-2.58l1.03-.37Z"/>
  <path class="cls-2" d="M94.24,16.06c-.22-1.46,1.33-1.11,1.86-1.82-.05,1.02,.89,1.29,1.42,1.86-.99,.52-1.35,1.54-1.92,2.39-.13,.13-.29,.19-.48,.18-.87-.68-1.45-1.45-.88-2.62Z"/>
  <path class="cls-229" d="M112.86,29.06c.58,.6,1.16,.13,1.74,0,.48,.13,.91,.89,1.37,.45,.68-.64-.54-1.16-.35-1.85,.11-.36,.21-.71,.32-1.07,.16,.23,.32,.45,.48,.68,.69,.98,.88,2.15,1.17,3.27,.01,.14,.02,.29,.04,.43-1.88,.36-3.4-.41-4.81-1.54-.11-.1-.14-.19-.09-.27,.05-.08,.09-.12,.13-.12Z"/>
  <path class="cls-99" d="M117.88,76.11c-.87,.04-1.79-.06-2.44,.73-.34-.05-.68-.42-1.03-.03-2-1.73,.13-1.73,.95-2.29,.8-.48,1.17-.01,1.46,.65,.35,.31,.71,.62,1.06,.93Z"/>
  <path class="cls-115" d="M84.57,31.71c-.17-.49-.34-.98-.52-1.47,.91-.86,2.1-1.04,3.23-1.38,.42-.11,.86-.14,1.29-.17,.33-.03,.66-.09,.98-.17,.88-.27,1.82,.24,2.69-.22,.18,.03,.32,.12,.41,.28,.13,.37,.11,.71-.14,1.03-.3,.24-.66,.31-1.03,.33-.35,.02-.71-.02-1.06-.07-1.56-.1-2.94,.75-4.45,.93-.13,.01,.02,.3,.02,.47-.14,.33-.42,.48-.73,.6-.26,.06-.5,.05-.7-.14Z"/>
  <path class="cls-248" d="M72.88,30.26c-1.6,.97-3.24,1.28-5.13,.8-1.15-.29-2.44-.05-3.67-.05,1.3-.73,2.71-.41,4.08-.42,.61,0,1.37,.3,1.45-.74,.79-.44,1.63-.03,2.44-.17,.35,.09,.65,.23,.82,.58Z"/>
  <path class="cls-231" d="M84.57,31.71l.63-.03c.88-.34,1.8-.55,2.69-.86,.72-.22,1.44-.41,2.19-.12,.53,.38,.51,.8-.01,1.12-.41,.25-.81,.5-1.2,.78-.16,.08-.33,.14-.51,.18-.36,.07-.73,.09-1.1,.1-.76-.01-1.5,.2-2.25,.27-.41-.02-.81-.07-1.03-.48,.2-.32,.39-.64,.59-.95Z"/>
  <path class="cls-266" d="M128.17,21.11c-.55-1.27-1.91-.15-2.64-.9-.01-.08-.02-.16-.04-.25,.19-.64,.73-1.09,.96-1.71,.13-.22,.3-.38,.56-.43,.87,.93,2.21,1.69,1.15,3.3Z"/>
  <path class="cls-5" d="M69.51,24.46c.31-.27,.61-.53,.92-.8,.69,.05,1.02,.59,1.39,1.06-.35,.91-.63,1.9-1.89,1.91-.47-.41-.96-.8-1.12-1.44,.09-.38,.43-.53,.71-.73Z"/>
  <path class="cls-64" d="M63.08,15c.12,.6,.26,1.2-.1,1.78-.32,.36-.55,.82-1.03,1.02-.39,0-.78-.02-1.17-.03-.72-2.16,.44-2.76,2.3-2.77Z"/>
  <path class="cls-194" d="M92.08,82.51c.19-.86,.92-.73,1.45-.65,2.23,.32,4.49,.49,6.6,1.4-.08,.17-.2,.26-.38,.29-2.54-.44-5.04-1.23-7.66-1.04Z"/>
  <path class="cls-180" d="M89.61,16.17c1.23-.37,1.36,.69,1.85,1.35,.21,.28,0,1.32,.93,.69,.08,.06,.15,.11,.23,.17,.38,.85,.1,1.43-.74,1.77-.94,.01-.8-.84-1.08-1.36-.21-.38-.18-1.24-1.01-.58-.13,.11-.27,.17-.43,.2-.17,0-.31-.06-.44-.17,.07-.51,.15-1.01,.22-1.52,.16-.19,.32-.38,.48-.57Z"/>
  <path class="cls-18" d="M123.37,17.89l-1.12-.02c-.13-.97-1.6-1.96,.03-2.92,.49-.28,.97-.41,1.46-.01,.1,0,.21,.03,.3,.06,.72,1.19,.48,2.15-.68,2.89Z"/>
  <path class="cls-233" d="M72.09,29.86c-.83,.62-1.65,.2-2.48,0,.34-.79,.68-1.58,1.02-2.37,.54,.17,1.06,.39,1.42,.86-.27,.51,.44,1,.04,1.51Z"/>
  <path class="cls-41" d="M123.37,17.89c.55-.89,.75-1.85,.68-2.89,.39,.07,.61,.32,.75,.67,.22,.72,.7,.61,1.22,.37,.33,.59,.66,1.18,1,1.78-.1,.14-.19,.27-.29,.41-1.01-.57-2.01,.47-3.02,.02-.11-.12-.23-.24-.34-.36Z"/>
  <path class="cls-296" d="M123.74,14.94c-.51,.04-1.01,.09-1.43,.43-.37-.18-.81-.18-1.16-.42-.04-.69,.17-1.55-1.02-1.4,1.31-.88,3.12-.18,3.61,1.4Z"/>
  <path class="cls-184" d="M117.2,17.5c.63,.68,.61,2.1,2.07,1.84,.19,.12,.22,.27,.07,.45-.94,.2-1.48,1.42-2.65,1.03-.55-.56,.18-1.27-.24-1.85-.06-.64,.05-1.2,.74-1.47Z"/>
  <path class="cls-47" d="M112.86,29.06c-.01,.13-.03,.26-.04,.39-.75-.54-.58-1.7-1.46-2.15,.69-.77,1.31-1.79,2.55-.79-.31,.87-1.34,1.44-1.05,2.55Z"/>
  <path class="cls-267" d="M67.42,19.32c1.51,.06,2.05-.85,2.17-2.18,.24,.48,.47,.96,.71,1.44-.1,.8,.96,1.84-.48,2.37-.6-.16-1.13-.53-1.77-.58-.16-.05-.3-.12-.44-.21-.21-.25-.47-.48-.2-.84Z"/>
  <path class="cls-211" d="M66.31,82.22c1.66-.66,2.48-2.19,3.51-3.48,.37-.47,.6-1.04,1.23-1.25-1.17,2.08-2.17,4.32-4.73,5.12-.09-.08-.12-.17-.09-.26,.03-.09,.06-.13,.09-.13Z"/>
  <path class="cls-240" d="M66.31,82.22c0,.13,0,.26,0,.39-.02,.47-.24,.81-.69,.97-.98-.15-2.14-.15-1.47-1.72,.22-.26,.45-.52,.67-.78,.49,.38,.99,.76,1.48,1.14Z"/>
  <path class="cls-269" d="M87.37,29.21c-1.12,.31-2.12,.99-3.32,1.03-.34-.24-.68-.48-1.02-.71,.59-.13,1.18-.27,1.77-.4,.3-1.15,1.11-.85,1.88-.66,.35,.14,.63,.33,.69,.74Z"/>
  <path class="cls-257" d="M113.18,33.52c1.78,.71,3.63-.23,5.42,.23-1.39,.02-1.36,1.49-2.16,2.12-.1-.71,.41-1.85-1.1-1.56-.7,.14-1.4,.14-2.11,.03-.26-.26-.26-.53-.05-.81Z"/>
  <path class="cls-56" d="M122.74,23.59c1.04,.43,2.1,.14,3.15,.09-.77,.99-2.05,.53-2.98,1.05-.75-.13-1.31,.7-2.1,.42-.03-.11-.04-.23-.01-.35-.12-.12-.18-.27-.19-.44,.09-.46,.45-.68,.79-.92,.49-.35,.93-.25,1.34,.15Z"/>
  <path class="cls-93" d="M70.49,75.45c-.07-.01-.13-.03-.2-.04-.02-.59,0-1.16,.7-1.38,.8-.43,1.35,.02,1.87,.55,.3,.37,.28,.77,.1,1.19-.03,.11-.08,.22-.15,.31-.87,.15-1.53-.47-2.32-.62Z"/>
  <path class="cls-34" d="M106.57,23.43c.07-.32,.1-.67,.44-.85,1.18,1.3,.41,2.63,.05,3.95-1.22-.87-.36-2.07-.49-3.11Z"/>
  <path class="cls-263" d="M104.11,29.49c-.12,.15-.24,.3-.36,.45-.62,.54-.52,1.61-1.43,1.94-.17,.03-.35,.02-.52,0-.74-.35-1.96-.41-1.09-1.76,.28-.2,.62-.22,.95-.27,.75-.43,1.44-1.15,2.4-.45,0,0,.07,.08,.07,.08Z"/>
  <path class="cls-98" d="M69.6,20.75c.6,.03,.7-.21,.49-.75-.18-.48-.36-1.03,.2-1.43,.65,.15,1.39,.27,1.33,1.15-.07,.92-.8,1.24-1.58,1.44-.16-.01-.32-.03-.48-.04-.1-.14-.09-.26,.04-.37Z"/>
  <path class="cls-165" d="M95.48,18.26c.43-.96,.35-2.4,2.04-2.16,.04,.26,.05,.55,.36,.67,.12,.49,.23,.99,.35,1.48-.22,.22-.03,.69-.46,.79-.61-.15-.5-.86-.85-1.21-.55,.3-.43,1.04-1.02,1.21-.5-.07-.31-.5-.43-.78Z"/>
  <path class="cls-211" d="M70.49,75.45c1.06-.88,1.55,.41,2.32,.62,.05,.14,.1,.27,.15,.41-.64,.34-1.28,.68-1.92,1.02,.26-.8-.79-1.25-.55-2.05Z"/>
  <path class="cls-237" d="M69.51,24.46c-.24,.24-.47,.48-.71,.73-.71,.24-1.54,.04-2.15,.61-.32-.28-.48-.65-.59-1.05-.05-.25-.04-.5,.06-.74,.3-.42,.58-.87,1.22-.68,.23,1.32,1.07,1.47,2.17,1.13Z"/>
  <path class="cls-239" d="M120.43,36.8c-.47,.62-1.38,.02-1.85,.65-.09,.13-.21,.21-.37,.24-.37,.02-.75-.04-1.12,0-.46-.01-.85,.3-1.31,.27-.32-.18-.16-.58-.38-.81,0-.55,.2-.95,.8-1.04,.1,1.13,.96,.53,1.47,.59,.91,.11,1.86-.53,2.76,.1Z"/>
  <path class="cls-17" d="M116.82,75.18c-.38-.46-.84-.74-1.46-.65,.13-.22,.25-.45,.38-.67,1.24-.43,.92-1.48,.91-2.38,0-.44-.45-.91,.17-1.26,.46,1.06,.64,2.14,.12,3.23-.27,.56-.22,1.14-.12,1.73Z"/>
  <path class="cls-122" d="M108.82,30.94c-.25-.23-.5-.45-.76-.68,.52-.07,1.07-.05,1.13-.82,.05-.71,.48-1.17,1.18-1.37-.93,.94-.54,2.09-.49,3.18,.11,.08,.16,.18,.15,.29,0,.11-.03,.17-.06,.17-.24,.18-.5,.2-.78,.12-.32-.22-.58-.46-.38-.9Z"/>
  <path class="cls-106" d="M119.52,81.84c.41-.01,.82-.03,1.23-.04,.25-.15,.46-.03,.66,.12,.56,.66,1.26-.15,1.85,.19,.48,1.46-.09,1.69-1.4,1.29-.95-.3-1.53-1.09-2.34-1.55Z"/>
  <path class="cls-158" d="M76.47,30.97c.91-1.46-.83-2.4-.73-3.69,1.38,.82,1.92,2.01,1.6,3.59-.08,.16-.22,.26-.4,.29-.18,0-.33-.07-.47-.18Z"/>
  <path class="cls-122" d="M102.35,31.7c.46-.59,.51-1.51,1.4-1.76,0,.35-.09,.72,.27,.97-.12,.47-.23,.94-.35,1.42-.41,.51-.89,.46-1.4,.18-.2-.29-.25-.57,.08-.81Z"/>
  <path class="cls-16" d="M120.82,25.15c.66-.34,1.23-1.12,2.1-.42-.49,.34-.08,1.46-1.08,1.31-.47-.07-1.13-.09-1.01-.9Z"/>
  <path class="cls-71" d="M73.51,27.39c-.43-.29-.23-.78-.38-1.16,.7-.11,1.41-.28,1.92,.44,0,.65,.08,1.31-.34,1.88-.62-.16-.5-1.08-1.2-1.16Z"/>
  <path class="cls-112" d="M79.36,79.62c.28,.03,.56,.06,.84,.1-2,.57-3.95,.85-5.65-.76,1.62,.11,3.13,.99,4.81,.67Z"/>
  <path class="cls-198" d="M83.98,32.66c.42,.03,.84,.05,1.26,.08,.43,.72,.14,1.17-.56,1.46-.51,.13-1.02,.12-1.51-.07-.38-.21-.65-.48-.48-.96,.15-.17,.31-.33,.46-.5,.28,0,.56,0,.83-.01Z"/>
  <path class="cls-123" d="M64.19,15.24c-.27-.09-.54-.18-.81-.27,.62-1.54,1.88-1.7,3.3-1.52-.43,.09-.75,.28-.8,.77-.3,.77-1.2,.57-1.69,1.02Z"/>
  <path class="cls-170" d="M63.01,24.43l1.39-.83c1.02-.35,1.43,.21,1.62,1.09-.37,.64-1.08,.03-1.52,.42-.49-.25-1.11-.2-1.49-.68Z"/>
  <path class="cls-200" d="M63.39,31.64c.32,.75,.8,1.45,.64,2.32-.58,.45-1.18,1.01-1.22-.37-.02-.72-.07-1.43,.57-1.95Z"/>
  <path class="cls-142" d="M123.26,82.1c-.7-.07-1.32,1.69-2.09,.1,.33-.53,.48-1.31,1.41-.97,.54,.05,1.03,.13,.68,.88Z"/>
  <path class="cls-46" d="M76.88,31.04c.15-.06,.3-.11,.46-.17,0,0,.13,.03,.13,.03,.14,.37,.29,.74,.43,1.11-.21,.63-.66,1.09-1.08,1.58-.17,.04-.34,0-.49-.09-.67-1.01-.39-1.81,.55-2.46Z"/>
  <path class="cls-24" d="M118.57,21.53c-.47,.85-1.57,.43-2.14,1.07-.69-.62,.26-.95,.26-1.45,.11-.13,.25-.19,.42-.19,.59-.07,1.15-.06,1.47,.57Z"/>
  <path class="cls-226" d="M120.7,24.34c.03,.15,.07,.31,.1,.46-.68-.27-1.07,1-1.82,.34,.4-.53,.11-1.33,.69-1.78,.6,.06,.88,.44,1.02,.98Z"/>
  <path class="cls-45" d="M106.23,76.79c.03,.47,.07,.94,.1,1.4,.28,.54,.34,1.07-.03,1.59-.16,.86,.3,1.81-.36,2.6-.03-1.25-.06-2.49-.09-3.74-.27-.7-.78-1.45,.39-1.85Z"/>
  <path class="cls-102" d="M110.63,79.68c.99-.5,1.97-1,2.96-1.5-.4,1.57-1.72,1.64-2.97,1.83-.11-.08-.15-.15-.11-.22,.04-.07,.08-.11,.12-.11Z"/>
  <path class="cls-89" d="M83.71,83.31c1.73,0,3.45,0,5.18,0-1.73,.59-3.45,.73-5.18,0Z"/>
  <path class="cls-74" d="M65.91,33.88c0,.6,.03,1.19,.49,1.65-.7,.4-1.05-.3-1.56-.24-.11-.23-.22-.45-.33-.68,.76,.32,.79-.77,1.4-.73Z"/>
  <path class="cls-27" d="M126.02,16.04c-.14,.61-.35,1.19-1.15,.87-.82-.33-.36-.81-.07-1.24,.43,.04,.93-.14,1.22,.37Z"/>
  <path class="cls-253" d="M116.47,18.97c.6,.49,.22,1.17,.33,1.76,.12,.06,.17,.12,.13,.18-.04,.06-.08,.09-.12,.09-.04,.05-.08,.11-.12,.16-.76,.1-1.2-.11-.87-.96,.17-.43,.43-.83,.66-1.24Z"/>
  <path class="cls-189" d="M64.51,25.11c.36-.56,.94-.19,1.4-.34,.12-.17,.24-.17,.37,0,.4,.25,.34,.66,.38,1.04-.92,.42-1.39-.58-2.15-.69Z"/>
  <path class="cls-289" d="M122.57,81.22c-.47,.32-.94,.65-1.41,.97-.14-.13-.28-.27-.41-.4,.45-.6,.91-1.19,1.36-1.79,.16,.41,.31,.82,.47,1.22Z"/>
  <path class="cls-8" d="M69.93,26.63c.95-.32,1.27-1.27,1.89-1.91,.22,.34,.43,.68,.65,1.02-1.01-.1-1.36,.7-1.83,1.34-.24-.15-.48-.3-.71-.45Z"/>
  <path class="cls-122" d="M107.71,30.21c-.84,0-1.69,0-2.53,0,.85-1.7,1.69-.47,2.53,0Z"/>
  <path class="cls-207" d="M110.63,79.68c0,.11,0,.22,0,.33-1.34,.21-2.66,.14-3.95-.31-.2-.53,.15-.6,.5-.51,.43,.11,.86,.27,1.28,.45,.73,.02,1.45,.03,2.18,.05Z"/>
  <path class="cls-129" d="M121.56,33.9c-.1,.59,.5,.7,.74,1.06-.35,.56-.91,.68-1.7,.82,.12-.72,.59-1.25,.48-1.88,.16,0,.32,0,.48,0Z"/>
  <path class="cls-83" d="M64.15,81.86c-.34,1.28,.87,1.24,1.47,1.72-.56,.02-1.15,.76-1.65,.19-.52-.59-.34-1.32,.18-1.92Z"/>
  <path class="cls-256" d="M99.74,83.54c.13-.1,.26-.19,.38-.29,1.38,.02,2.77,.04,4.15,.07-1.48,.75-3.01,.38-4.54,.22Z"/>
  <path class="cls-134" d="M108.44,79.63c-.58,.33-1.21-.67-1.78,.07-.12,.03-.25,.06-.38,.09,.01-.53,.02-1.06,.03-1.59,.71,.48,1.41,.95,2.12,1.43Z"/>
  <path class="cls-172" d="M91.36,78.2c-.39-.51-.97-.24-1.46-.36-.12-.2-.09-.37,.09-.52,1.6-.61,3.26-.87,4.94-.58,1.24,.21,2.15,.19,2.25-1.39,.02-.35,.14-.9,.78-.68,.21,.44,.2,.93,.32,1.39,.32,1.19-.13,1.95-1.4,2.13-1.84,0-3.67,.01-5.51,.02Z"/>
  <path class="cls-285" d="M96.87,78.18c1.84-.77,.84-2.36,1.06-3.61,.08-.01,.17-.02,.25-.04,.11,.07,.17,.15,.17,.25,0,.11-.02,.16-.05,.16,.97,1.35,2.37,.56,3.54,.58,.99,.02,1.99-.07,2.97,.15,.11,.2,.08,.37-.1,.5-1.36,.6-2.8,.27-4.21,.32-.93,.03-1.62,.27-1.88,1.24-.1,.16-.22,.31-.34,.46-.47,0-.94-.02-1.41-.03Z"/>
  <path class="cls-284" d="M98.28,78.21c0-.13,.02-.26,.03-.39,.49-.44,1.09-.46,1.67-.32,1.55,.37,3.15,.41,4.68,.86,.2,.13,.26,.31,.16,.53-2.24,.39-4.42,.16-6.54-.68Z"/>
  <path class="cls-186" d="M104.82,78.89c0-.11,0-.23,0-.34-.63-.83-.64-1.66,0-2.49,0-.12,0-.24,0-.37,.76,0,1.17,.45,1.42,1.1-.6,.52-.21,1.25-.39,1.85-.34,.08-.68,.16-1.02,.24Z"/>
  <path class="cls-90" d="M97.93,74.58c-.87,.79,.43,2.4-.85,2.82-.89,.29-2.01-.2-3.02-.19-1.38,.01-2.75,.17-4.13,.26-.27-.48-.39-1-.46-1.54-.26-1.97-.64-2.4-2.57-2.42-1.55-.02-3.13-.27-4.65,.3l.02-.03c-1.26,.47-2.39,1.3-3.8,1.33-.71,.01-1.45,.11-1.98-.54-.29-.69,.46-1.14,.41-1.77,.03-.07,.06-.14,.08-.22,.47-.51,.93-1.03,.89-1.8,.03-.35,.08-.69,.24-1,.25-.41,.58-.73,1.03-.92,.48-.16,.96-.14,1.44-.04,2.81,.4,5.63,.08,8.45,.18,.84,.03,1.85-.22,2.46,.32,1.58,1.41,2.93,.97,4.34-.16,3.95-.48,7.94-.25,11.89-.61,.83,.18,1.14,.91,1.6,1.49,.37,.82,.41,1.79,1.15,2.42,.26,.3,.69,.5,.59,1.01,.17,1.98-1.27,1.69-2.46,1.76-2.43-1.27-4.94-2.03-7.76-1.81-1.17,.09-2.04,.49-2.88,1.18l-.02-.03Z"/>
  <path class="cls-247" d="M74.35,69.09c.55-4.13,.3-8.28,.29-12.42-.01-2.92-.28-3.14-3.23-3.18-.71-.4-.91-.9-.29-1.55,4.07,.58,4.8,1.39,4.78,5.51-.02,3.74,.21,7.5-.34,11.22-.22,.69-.63,.83-1.22,.41Z"/>
  <path class="cls-275" d="M71.06,51.98c-.23,.58,.11,1.04,.35,1.51,.69,4.11,.3,8.21-.13,12.31-.33-.29-.26-.7-.31-1.07-.51-.6-.48-1.34-.49-2.06-.02-1.56-.08-3.13,.01-4.68,.1-1.79-.19-3.45-1.18-4.96,.65-1.22,.78-2.61,1.26-3.89,.21-.11,.4-.08,.56,.09,.48,.93,.56,1.84-.08,2.74Z"/>
  <path class="cls-203" d="M78.9,69.15c-.19,.24-.39,.48-.58,.72-.74,.97-1.35,2.04-2.28,2.87-.71,.07-1.41,.11-1.77-.7-.3-.94,.17-1.58,.8-2.18,.52-.5,1.1-.93,1.51-1.53,.24-.27,.53-.47,.88-.57,.27-.05,.53-.03,.79,.07,.49,.31,.79,.71,.64,1.33Z"/>
  <path class="cls-294" d="M76.49,74.56c1.35,.51,2.64,.32,3.93-.27,.58-.27,1.17-.59,1.85-.51-1.53,1.37-3.35,1.88-5.31,1.48-1.45-.3-2.7,.08-4,.51-.03-.4-.06-.79-.1-1.19,1.21,.35,2.41-.6,3.62-.02Z"/>
  <path class="cls-217" d="M76.76,68.42c0,.91-.79,1.33-1.32,1.74-.68,.53-.98,1.12-1.16,1.88-.86-1-.4-1.98,.07-2.95,.39,.05,.79,.11,1.02-.32,.33-.66,.78-.83,1.39-.34Z"/>
  <path class="cls-171" d="M76.04,72.74c.29-1.33,1.13-2.21,2.28-2.87,0,.34,0,.68,0,1.01-.57,.57-.97,1.27-1.48,1.88,0,0,.06,.01,.06,.01-.28-.01-.57-.03-.85-.04Z"/>
  <path class="cls-152" d="M112.74,53.51c-.37,.09-.54,.34-.58,.71-.44,4.76,0,9.48,.66,14.19,0,.2-.02,.39-.03,.59-.09,.17-.23,.26-.43,.27-.75-.06-1.46-.25-2.13-.6-.7-.37-1.1-.92-1.08-1.74,.45-5.53,.17-11.07,.2-16.6,0-.78-.04-1.57,.01-2.35,.14-3.73-.13-7.46,.14-11.19,.79-1.11,.88-2.49,1.41-3.71,1.17-.39,1.76,.21,2.1,1.23-1.56,3.33-1.29,6.89-1.29,10.41,0,2.94,.28,3.27,3.17,3.96,.36,.09,.69,.21,.95,.49,.55,1.14,.49,2.3,.1,3.47-.88,.98-2.32-.08-3.2,.88Z"/>
  <path class="cls-219" d="M109.33,67.5c.42,.34,.84,.67,1.26,1.01,.42,.48,.89,.89,1.38,1.29,.14,.1,.26,.2,.39,.31,.54,.66,1.69,1.2,.47,2.24-.11,.05-.22,.09-.33,.12-.98,.98-1.46,.08-2.03-.52-.57-.47-.84-1.2-1.4-1.69-.37-.46-.9-.81-1.04-1.43,.02-.41,.32-.66,.56-.94,.21-.19,.38-.48,.74-.38Z"/>
  <path class="cls-25" d="M112.81,68.41c-1.28-4.39-1.16-8.9-1.05-13.4,0-.27,.26-.53,.39-.79,.87,1.58-.09,3.21,.15,4.88,.41,2.8,.26,5.7,.84,8.52,.06,.31-.07,.59-.33,.78Z"/>
  <path class="cls-143" d="M112.74,53.51c.73-1.24,1.96-.52,2.95-.77,.23-.18,.48-.31,.78-.32,.3,.01,.57,.11,.78,.34,.1,.42-.07,.78-.24,1.14-1.21,2.52-.78,5.18-.61,7.81,.08,1.24,.58,2.47,.04,3.71-.24,.01-.47,.03-.71,.04-.44-3.7-.7-7.4-.09-11.11,.1-.62-.19-.8-.77-.94-.75-.18-1.42,.08-2.13,.11Z"/>
  <path class="cls-52" d="M112.07,70.26c-.11-.04-.2-.09-.29-.16-.16-.6,.22-.88,.67-1.11,.11,0,.22,0,.34,0,.96,.7,1.66,1.47,.72,2.67-.34-.61-.77-1.13-1.44-1.42Z"/>
  <path class="cls-262" d="M110.59,71.66c.65,.24,.83,1.58,1.9,.81,0,.21,0,.42,0,.63-.5,.04-1.01,.02-1.43,.37-.27-.18-.54-.36-.81-.55-.21-.51-.08-.93,.35-1.26Z"/>
  <path class="cls-159" d="M112.07,70.26c.99-.05,1.35,.55,1.44,1.42-.13,.32-.13,.77-.68,.68,.87-1.11-.51-1.39-.76-2.09Z"/>
  <path class="cls-174" d="M97.95,74.6c1.07-1.9,2.95-1.66,4.63-1.56,2.19,.12,4.27,.75,6.02,2.19-2.07-.29-3.85-1.74-6.06-1.47-1.48,.18-3.16-.39-4.24,1.2-.12-.12-.23-.23-.35-.35Z"/>
  <path class="cls-259" d="M89.17,76.75c.01,.49-.06,.9-.57,1.19-2.14,1.23-5.56,.66-7.05-1.22,.17-1.24,1.11-1.4,2.09-1.42,1.81-.04,3.62-.02,5.43-.03,.05,.09,.1,.18,.15,.26-1.77,.75-3.58,0-5.03,.3,1.11,.03,2.57-.01,4.02,.01,.45,.16,1.07,.14,.98,.9Z"/>
  <path class="cls-245" d="M89.17,76.75c-.24-.23-.48-.46-.72-.69,.08-.41,1.05,.03,.72-.76,0,0-.11-.03-.11-.03-.18-1.1-.87-1.47-1.93-1.45-1.63,.03-3.26-.01-4.89-.02,2.13-1.29,4.35-1.05,6.48-.16,1.74,.73,.99,2.48,1.2,3.82,0,.13-.02,.25-.03,.38-.24-.36-.48-.72-.73-1.09Z"/>
  <path class="cls-75" d="M115.69,49.15c-3.53-.12-4.26-.85-4.24-4.48,.02-2.58,.26-5.17,.21-7.74-.03-1.2,1.12-1.68,1.22-2.71,.1-.19,.22-.19,.34-.02,.71,.04,1.42,.07,2.13,.11-2.74,.38-3,2.59-3.18,4.64-.19,2.27-.14,4.57-.02,6.84,.11,2.26,.92,2.66,3.28,1.88,.17-.09,.32-.07,.45,.07,.24,.41,.24,.82,.02,1.24-.07,.06-.13,.11-.2,.17Z"/>
  <path class="cls-85" d="M115.75,47.67c-.11,0-.23,0-.34,0,0-3.51,0-7.01,0-10.52,.11,.25,.22,.5,.33,.76,.44,.4,.5,.95,.5,1.48,.01,2.68,.1,5.37,.04,8.05-.1,.25-.27,.33-.52,.23Z"/>
  <path class="cls-293" d="M76.76,68.42c-.46,.11-.93,.23-1.39,.34-.46-.27-.39-.71-.32-1.13,.6-3.83,.42-7.69,.33-11.54-.05-2.37-.79-3.15-3.21-3.36-.6-.05-.84-.35-1.1-.75,0-.93,0-1.87,0-2.8,.06-.07,.11-.14,.17-.21,.94-.49,2.19-.11,2.97-1.05,1.03-1.41,1.01-3.05,.92-4.66-.04-.71-.26-1.43-.21-2.16,.16-2.38-.06-4.68-1.2-6.83,.03-.21,.13-.37,.31-.48,.35-.2,.7-.39,1.06-.59,.7-.66,.74-.64,1.08,.58,.02,1.09,.55,1.96,1.21,2.77,.36,3.91-.19,7.83,0,11.74,.3,6.13-.42,12.29,.54,18.4,.08,.51-.03,.96-.35,1.36-.27,.12-.53,.24-.8,.36Z"/>
  <path class="cls-190" d="M74.02,33.79c-.06,.14-.12,.29-.18,.43-.27,.33-.65,.41-1.04,.46-.95,0-1.89,.12-2.84,0-.43-.42-.8-.92-1.48-.93,1.85,.01,3.7,.03,5.55,.04Z"/>
  <path class="cls-126" d="M72.09,29.86c-.14-.5-.55-.99-.04-1.51,.27,.26,.55,.52,.82,.79,.43,.2,1.04-.18,1.36,.41-.22,.67-.81,.65-1.36,.71-.3-.06-.61-.09-.78-.4Z"/>
  <path class="cls-78" d="M75.76,33.88c-.16-.3,.29-1.21-.69-.68,.21-.9,.92-1.49,1.4-2.22,.14,.02,.27,.04,.41,.06-.5,.73-.71,1.51-.37,2.37-.11,.39-.34,.58-.76,.47Z"/>
  <path class="cls-274" d="M74.23,29.55c-.45-.16-1.05,.2-1.36-.41,.94-.32,1.4-.81,.64-1.75,.83-.06,.88,.69,1.2,1.16-.16,.34-.31,.67-.47,1.01Z"/>
  <path class="cls-73" d="M113.21,34.2c-.11,.01-.23,.02-.34,.02-.44-.63-1.08-.95-1.8-1.14-.36,.06-.69-.02-.96-.28-.29-.35-.46-.74-.34-1.2,0-.12,.04-.23,.1-.33,1.61,.01,2.31,1.35,3.31,2.26,0,.23,.02,.45,.03,.68Z"/>
  <path class="cls-192" d="M70.61,49.16c-.17,1.25,.73,2.82-1.07,3.59-.33,.43-.23,.93-.21,1.42-.2,2.45,.36,4.86,.36,7.29,0,.75,.16,1.57-.55,2.16-.46,.51-.32,1.55-1.38,1.53-1.85-.1-2.56-.85-2.54-2.85,.03-2.47,.72-4.85,1.13-7.27,.66-3.89,.44-7.75-.21-11.61-.15-.89-.24-1.78-.41-2.66-.48-2.5,.13-3.24,2.73-3.26,.21-.11,.4-.08,.56,.09,1.02,1.58,.76,3.36,.57,5.04-.18,1.55-.26,3.08-.26,4.62,0,.4,.04,.8,.33,1.12,.27,.32,.86,.25,.95,.79Z"/>
  <path class="cls-176" d="M70.61,49.16c-.33-.14-.65-.28-.98-.43,1.76-2.85,1.2-6.01,1.24-9.09,.01-1.02-.12-2.01-1.53-1.94-.19-.02-.36-.08-.51-.2h-.18s-.18-.01-.18-.01c-.42-.67-1.33-.07-1.78-.68,.78-.58,1.6-.03,2.39-.09,.58-.04,1.28,.38,1.76-.32,1.04-.22,1.32,.55,1.34,1.25,.09,3.37,.46,6.75-.29,10.09-.1,.57-.45,1-.8,1.43,0,0-.04,0-.04,0-.15,0-.29,0-.44-.01Z"/>
  <path class="cls-117" d="M86.69,28.72c-.64,.07-1.36-.27-1.88,.4-1.79-1.46-1.81-1.68-.39-3.26,.56,.16,1.18,.43,1.09-.6-.34-.82,.29-1,.82-1.25,.46,.3,.91,1.06,1.42,.05,.59,.31,.12,1.13,.69,1.44,.21,.18,.25,.42,.2,.67-.3,.65-.58,1.31-1.11,1.82-.11,.11-.22,.21-.33,.31-.16,.16-.34,.28-.52,.42Z"/>
  <path class="cls-105" d="M97.71,28.03c1.33-1.43,.94-3.53,2.02-5.06,.22,.44,.54,.72,1.06,.67,.59,.49-.73,1.48,.48,1.81,.1,.38-.09,.64-.35,.87-.23,.17-.66,.25-.61,.56,.09,.54,.65,1.16-.15,1.5-.84,.36-1.72,.39-2.44-.36Z"/>
  <path class="cls-292" d="M101.18,25.5c-.48-.35-1.01,0-1.53-.03-.07-.96,1.29-.92,1.14-1.83,1.01-.91,1.74,.12,2.57,.39,.12,.12,.24,.24,.36,.37,0,0,.01,.02,.01,.02-.15,.24-.29,.48-.44,.72-.26,.41-.64,.63-1.12,.7-.38,.04-.72-.04-.99-.33Z"/>
  <path class="cls-131" d="M101.34,19.54c.56,.27,.59,.59,.4,.84-.5,.64,.79,1.7,.06,1.7-1.18,0-.37-1.31-.6-2.01-.04-.12,.08-.3,.14-.53Z"/>
  <path class="cls-135" d="M119.3,19.66c0-.11,0-.21-.03-.32,.17-.03,.41,0,.51-.11,1.39-1.5,2.52-.99,3.54,.43,.34,.37,.32,.74,0,1.11h-.18s-.18,0-.18,0c-.37,.56-.7,.56-.98-.08-.49-1.13-1.09-.77-1.72-.14-.37,.3-.54,.79-1.01,.99-.11-.01-.23-.03-.34-.05-.78-.79-.33-1.34,.37-1.84Z"/>
  <path class="cls-133" d="M123.71,18.25c1.01-.09,2-1.73,3.02-.02,.18,1.02-.85,1.31-1.22,1.99-.55-.41-1.21-.61-1.78-.97,0-.33-.01-.67-.02-1Z"/>
  <path class="cls-185" d="M121.16,14.95c.53-.26,1.05-.49,1.15,.42-.16,.31-1.03,.4-.3,.98,.54,.43,.62,.94,.23,1.51-.52,.02-1.06,.15-1.67-.18,.71-.84,.58-1.8,.58-2.74Z"/>
  <path class="cls-223" d="M123.72,19.25c1-.43,1.46,.14,1.78,.97,0,0,.03-.01,.03-.01-.71,.29-1.36,.77-2.2,.57,0-.37,0-.74,0-1.11,.13-.14,.26-.28,.4-.41Z"/>
  <path class="cls-242" d="M102.21,25.53c.36-.13,.72-.26,1.08-.4,.72,1.34,1.54,2.67,.75,4.28-.81,.03-1.59,.11-2.14,.82-.24-.29-.9-.11-.82-.75,.3-.79,1.61-1.29,.68-2.43,.04-.17,.11-.33,.22-.46,.27-.31,1.01-.52,.22-1.05Z"/>
  <path class="cls-96" d="M103.72,24.4c-.21-.98,.67-.98,1.31-1.47-.13,.8-.04,1.57-.38,2-.34,.44-.55-.41-.92-.51,0,0-.01-.02-.01-.02Z"/>
  <path class="cls-244" d="M67.42,19.32c.11,.25,.21,.49,.32,.74-.43,1.04-.98,1.95-2.16,2.28-.39,.02-.63-.18-.78-.53-.23-.22-.46-.44-.7-.66-.14-.24-.27-.48-.41-.73,.13-.61,.27-1.23,.4-1.84,1.35-.85,2.32-.02,3.32,.73Z"/>
  <path class="cls-282" d="M64.51,17.49c.22-1.16,.83-1.37,1.8-.76,.25,2.27-1,.98-1.8,.76Z"/>
  <path class="cls-33" d="M64.19,15.24c-.11-1.45,1.33-.35,1.69-1.02,.04,.37,.09,.74,.13,1.1-.64,.7-1.23,.33-1.82-.08Z"/>
  <path class="cls-9" d="M97.71,28.03c.59,.03,1.17,.04,1.75,.11,.3,.04,.62,.14,.79-.18,.37-.68-.45-.32-.52-.56-.29-.98,.09-1.39,1.1-1.18,.48,.11,.79,.39,.89,.89-.03,1.72-1.07,2.35-2.63,2.41-.56-.03-1.07-.18-1.49-.57-.14-.15-.15-.32-.04-.49,.05-.15,.1-.29,.15-.44Z"/>
  <path class="cls-154" d="M97.88,18.99c.12-.25,.23-.49,.35-.74,.53,2.17,.25,4.26-.66,6.29-.16-.13-.28-.3-.34-.5,.18-1.69-.15-3.44,.65-5.05Z"/>
  <path class="cls-288" d="M96.9,26.67c-.17,.36-.33,.72-.5,1.07-.36,.69-.93,.72-1.57,.5-.41-.25-.53-.63-.51-1.08,.33-1.15,1.19-1.06,2.09-.9,.21,.08,.37,.22,.49,.41Z"/>
  <path class="cls-212" d="M95,28.08c.47-.11,.94-.23,1.41-.34,.21,.53,.64,.7,1.15,.73,0,.07,0,.13,.02,.19-.81,.86-1.69,.85-2.62,.22-.16-.28-.18-.54,.04-.8Z"/>
  <path class="cls-216" d="M96.9,26.67c-.15-.04-.3-.09-.45-.13-.43-.52-.07-.97,.11-1.44,.24-.34,.39-.8,.96-.69,0,0,.05,.14,.05,.14,.03,.79-.04,1.55-.67,2.13Z"/>
  <path class="cls-132" d="M120.05,20.44c.3-.57,.52-1.3,1.4-1.08,.71,.18,1.08,.6,.96,1.43-.04,.25,.37,0,.58-.02,.02,.55-.28,.9-.75,1.14-.08,0-.17,.01-.25,.02-.94-.11-1.88-.22-1.94-1.49Z"/>
  <path class="cls-114" d="M122.74,23.59c-.39-.03-.8-.18-1.16,.11-.47-.39-.48-.9-.34-1.44,.2-.43,.48-.68,.98-.43,0,0,.01,.08,.01,.08-.22,.68,.66,1.02,.51,1.68Z"/>
  <path class="cls-192" d="M117.15,52.79c-.22-.03-.43-.06-.65-.08-.77-1.03-.3-2.21-.39-3.32,.04-.44,.3-.74,.65-.98,.25-.15,.46-.37,.68-.57,.58-1.28,.4-2.62,.17-3.91-.28-1.57-.19-3.13-.17-4.69,0-.69,.24-1.31,.86-1.7,.1-.03,.19-.05,.29-.08,2.53,.11,2.53,.17,2.6,2.72,.07,2.6-.55,5.11-.91,7.64-.46,3.23,.07,6.27,.88,9.33,.21,1.65,.45,3.29,.63,4.95,.24,2.16-.57,3.02-2.78,3.02-1.33-.04-1.47-1.07-1.55-2.02-.11-1.31-.12-2.64,.05-3.95,.37-2.14,.63-4.28-.35-6.35Z"/>
  <path class="cls-26" d="M64.8,21.81c.25,.13,.51,.26,.76,.4,.06,.05,.11,.1,.17,.16,.24,.56,.46,1.13,.53,1.74,0,.22,0,.44,0,.66-.12,0-.25,0-.37,0-.28-.67-.75-1.1-1.5-1.16,.39-.54,.28-1.19,.4-1.79Z"/>
  <path class="cls-141" d="M94.24,16.06c.06,.97,.4,1.83,1.1,2.53,.36,.41,.2,.75-.18,1.01-.38,.27-.64,.03-.84-.26,.01,.78-.05,1.55,.29,2.27,.25,.62,.01,.98-.61,1.12-.36-.03-.67-.18-.94-.42-.28-.35-.44-.74-.36-1.2,.49-.93,.19-2.04,.71-2.96-.22,0-.27,.25-.46,.29-.16,.04-.31,.04-.47-.02-.04-.07-.08-.14-.11-.21,.18-.74,.36-1.49,.54-2.23,.46-.22,.91-.28,1.33,.08Z"/>
  <path class="cls-214" d="M71.41,48.01c.68-3.4,.27-6.84,.32-10.27,0-.63-.08-1.23-.88-1.34-.41-.52-.86-1.02-.89-1.73,.88-.72,1.92-.35,2.89-.41,1.35,.38,2.02,1.56,2.06,2.68,.1,3.1,.76,6.2,.21,9.32-.15,.87-.43,1.61-1.12,2.18-.95,.4-1.86,.55-2.59-.43Z"/>
  <path class="cls-66" d="M89.22,18.24c.11-.01,.22-.03,.33-.04,.27,.2,.38,.49,.44,.81-.08,1.74,.55,3.44,.27,5.19-.12,.41-.32,.76-.69,1-.75-.13-.66-.6-.45-1.12-.08-.62-.17-1.24-.25-1.87,.47-1.29-.25-2.69,.35-3.97Z"/>
  <path class="cls-258" d="M89.12,24.08c.15,.34,.3,.68,.45,1.02,.32,.3,.35,.67,.29,1.06-.14,.52-.5,.8-1.01,.91-.47-.09-.68-.3-.38-.77,0-.26,0-.53-.01-.8,.59-.3-.46-1.38,.67-1.43Z"/>
  <path class="cls-53" d="M89.22,18.24c-.24,1.31,.37,2.7-.35,3.97-.15-1.32-.38-2.64,.04-3.96,.1,0,.21,0,.31-.01Z"/>
  <path class="cls-68" d="M85.51,25.26c.28,.45,1.17,.89,.35,1.44-.78,.52-1.13-.27-1.45-.85,.36-.2,.73-.4,1.09-.6Z"/>
  <path class="cls-146" d="M61.95,17.8c.42-.26-.3-1.67,1.03-1.02,.41,.21,.7,.66,.44,.97-.37,.43-.97,.09-1.47,.06Z"/>
  <path class="cls-181" d="M63.4,20.4c-.73,.21-1.33,.14-1.53-.74,.98-.72,1.36-.21,1.53,.74Z"/>
  <path class="cls-58" d="M116.44,65.42c-.7-3.07-.83-6.19-.67-9.31,.05-.95,.31-1.9,1.04-2.62,1.07-.38,1.02,.45,1.06,1.05,.07,1.05,.02,2.11,.02,3.17-.21,2.22-.4,4.44,0,6.65,.18,1-.45,.9-1.01,1.03-.15,.01-.3,.03-.45,.04Z"/>
  <path class="cls-202" d="M116.89,65.38c.54-.29,.74-.63,.7-1.35-.11-2.04-.03-4.1-.03-6.15,.9,.1,.44,.65,.36,1.08,0,1.3,0,2.61-.02,3.91,0,.93,.18,1.77,1.1,2.24-.63,.69-1.4,.22-2.11,.27Z"/>
  <path class="cls-271" d="M77.56,68.06c-1.26-10.52-.17-21.08-.63-31.61-.73-.97-.28-2-.17-3.01,.06-.74,.48-1.18,1.14-1.42,.42,.17,.95-.08,1.3,.35,.65-.29,1.29-.5,1.88,.11,.14,.25,.28,.49,.42,.74,.23,.11,.38,.3,.51,.5,.63,.75,1.49,.45,2.28,.52,1.09,.31,2.06-1.09,3.18-.21-.62,1.8-1.79,2.51-3.5,2.1-1.4-.33-2.88-.46-3.79-1.84-.24-.36-.67-.55-1.12-.41-.58,.18-.63,.73-.6,1.19,.26,3.85-.2,7.7-.21,11.55,0,4.09,.55,8.18,.07,12.27-.1,.89-.1,1.7,.77,2.22,.5,.37,.45,.85,.1,1.22-.63,.68-.57,1.51-.66,2.32-.44,.75-.3,1.54-.19,2.33,.04,.23,.08,.47,.1,.7,0,.16-.07,.3-.19,.42-.24-.01-.47-.02-.71-.03Z"/>
  <path class="cls-179" d="M81.59,33.91c-.03-.23-.06-.47-.09-.7,.35-1.39,.78-.19,1.18-.03,.11,.23,.23,.45,.34,.68-.46,.45-.94,.39-1.44,.06Z"/>
  <path class="cls-169" d="M81.09,32.47c-.63-.04-1.26-.07-1.88-.11,.18-.76,.77-.79,1.38-.75,.59,.04,.63,.41,.5,.86Z"/>
  <path class="cls-197" d="M103.67,34.6c.4-.01,.8-.02,1.2-.04,.56-.16,.85-.57,1.12-1.07,.58-1.05,1.61-.93,2.56-.74,.96,.2,1.16,1.02,1.1,1.83-.25,3.31,.04,6.63-.22,9.93-.43,.75-1.06,.56-1.7,.36-.95-.99-2.46-.88-3.48-1.75-.11-.26-.13-.52-.1-.8,.14-2.06-1.21-3.7-3.18-3.65-1.09,.03-2.33-.29-3.18,.79-.66,.85,.15,.6,.51,.68,.26,.09,.45,.26,.57,.5,.13,.33,.13,.67,.06,1.01,.02,.48-.67,.94-.05,1.44,.14-.05,.27-.09,.4-.13,.85-.11,1.02-.82,1.29-1.45,.09-.16,.21-.3,.35-.42,1.03-.5,2.02-.8,2.75,.47,.27,1.28-.41,2.26-1.24,3.01-1.73,1.54-3.41,3.17-5.39,4.41-.98,.33-1.03-.8-1.65-1.08,.2,.73,.06,1.43-.02,2.12-.26,.29-.57,.43-.96,.31-.92-.81-.61-1.88-.52-2.85,.09-.99,.07-1.9-.56-2.72-.23-.55-.24-1.12-.04-1.68,.07-.16,.24-.33,.23-.47-.19-2.72,1.62-4.58,2.84-6.69,.32-.64,1.54-1.51-.42-1.53-.27-.13-.41-.36-.46-.65,0-.31,.09-.58,.34-.78,1.54-.63,2.97-.25,4.36,.48,1.04,.77,2.44,.46,3.5,1.17Z"/>
  <path class="cls-209" d="M109.17,44.74c.01-3.31,.04-6.63,.03-9.94,0-.61,.27-1.51-.69-1.6-.82-.08-1.85-.54-2.4,.59-.26,.53-.56,.94-1.24,.77,.77-.46,.75-1.42,1.28-2.04,.25-.53,.77-.52,1.24-.61,.64,.04,1.19-.56,1.87-.27,.17-.02,.34-.03,.51-.05,.31,.31,.6,.64,.65,1.1-.22,1.24-.18,2.51-.54,3.73-.21,3.84,.19,7.68-.22,11.52-1.49-.87-1.05-2.03-.49-3.21Z"/>
  <path class="cls-136" d="M103.67,34.6c-1.3,.25-2.52,.14-3.56-.78-.22-.22-.28-.48-.22-.77,.55-.91,1.23-.55,1.92-.22,.49,.46,1.08,.8,1.5,1.35,.12,.14,.25,.28,.37,.42Z"/>
  <path class="cls-210" d="M103.3,34.18c-.69-.08-1.25-.36-1.49-1.07-.16-.46-.06-.76,.47-.81,.46,.2,.92,.15,1.38,.03,.88,.82-.06,1.27-.37,1.85Z"/>
  <path class="cls-60" d="M107.92,32.4c-.59,.04-1.18,.09-1.77,.13-1-.85-.53-1.27,.45-1.55,.53,.39,1.53,.34,1.32,1.42Z"/>
  <path class="cls-147" d="M107.92,32.4c-.11-.78-1.17-.68-1.32-1.42,.74-.01,1.48-.03,2.22-.04,.15,.24,.29,.47,.44,.71-.51,.14-.73,.8-1.34,.75Z"/>
  <path class="cls-108" d="M65.57,22.21c.95-.49,1.17-1.71,2.17-2.15,0,0,.03,0,.03,0,.24,.31,.6,.58,.25,1.03-.31,.28-.62,.56-.93,.84-.25,.38-.58,.61-1.05,.57-.16-.04-.31-.12-.45-.23l-.02-.06Z"/>
  <path class="cls-156" d="M68.02,21.08c-.08-.34-.17-.69-.25-1.03,.72-.04,1.53-.35,1.83,.7-.01,.12-.03,.25-.04,.37-.52,.42-1.03-.03-1.54-.04Z"/>
  <path class="cls-241" d="M65.59,22.26c.11-.02,.22-.02,.33,0,.47,.25,1.12,.11,1.44,.67,0,.13,0,.26,0,.39-.36,.26-.72,.51-1.08,.77-.84-.39-.71-1.13-.68-1.84Z"/>
  <path class="cls-244" d="M67.35,22.94c-.55-.07-1.05-.25-1.44-.67,.39-.11,.78-.23,1.17-.34,.14,.08,.31,.24,.43,.21,.51-.14,.89-.04,.85,.53-.07,.93-.74-.07-1.02,.27Z"/>
  <path class="cls-20" d="M122.22,21.83c-.23,.14-.46,.28-.69,.42-.37,.6-.83,.84-1.45,.34-.27-.34-.53-.69-.8-1.03,.13-.46,0-1.1,.77-1.1,.41,.96,1.43,.95,2.17,1.38Z"/>
  <path class="cls-116" d="M120.07,22.58c.48-.11,.97-.22,1.45-.34,.02,.49,.04,.97,.05,1.46-.29,.21-.58,.43-.87,.64-.34-.33-.68-.65-1.02-.98,.13-.26,.26-.52,.39-.78Z"/>
  <path class="cls-57" d="M119.3,19.66c-.35,.57-.61,1.15-.37,1.84-.12,.01-.25,.02-.37,.04-.59-.18-1.17-.35-1.76-.53,0-.09,0-.18,0-.27,.89-.23,1.42-1.29,2.51-1.07Z"/>
  <path class="cls-4" d="M68.85,53.53c.07-.4,.35-.62,.68-.78,1.69,1.3,1.51,3.17,1.5,4.98-.02,2.33-.04,4.67-.06,7-.63,.05-1.16-.1-1.43-.74-.14-2.85-.37-5.69-.52-8.53-.04-.65,.16-1.31-.16-1.93Z"/>
  <path class="cls-127" d="M68.85,53.53c.61,3.46,.87,6.95,.69,10.46-.13-.13-.27-.25-.4-.38,.25-3.37-.59-6.71-.28-10.09Z"/>
  <path class="cls-50" d="M115.62,27.67c.18,.15,.37,.29,.54,.46,.45,.44,.68,.98,.57,1.61-.08,.45-.48,.47-.84,.48-.81,.04-1.23-.35-1.29-1.15,.39-.43,.42-1.12,1.02-1.4Z"/>
  <path class="cls-270" d="M93.95,22.67c.18-.24,.75-.3,.37-.8-.36-.96-.34-1.92,0-2.89,.21,.16,.47,.49,.63,.45,.36-.09,.45-.47,.4-.84,.05-.11,.09-.22,.14-.33,.09,.24,.19,.48,.28,.72,.61,1.45-.31,2.69-.57,4.02-.28,.35-.63,.61-1.09,.42-.33-.14-.36-.44-.15-.74Z"/>
  <path class="cls-29" d="M89.65,26.14c-.03-.35-.06-.69-.09-1.04,0-.27,.04-.52,.32-.65,.53,.15,1,.04,1.45-.27,.28-.16,.57-.3,.9-.35,.5,0,.78,.23,.81,.74-.33,.98,.58,1.85,.26,2.84-.22,.28-.49,.46-.87,.35-.35-.17-.38-.81-.96-.68-.08,.58,.55,.59,.74,.94,.06,.16,.05,.32-.04,.47-.81,.93-1.77,.12-2.65,.24-.07-.15-.07-.31-.01-.47,.39-.68,.13-1.4,.15-2.11Z"/>
  <path class="cls-269" d="M90.3,31.07c-.76-.18-1.49-.06-2.21,.17-.74-.32-1.47,.4-2.21,.04,.15-.43-1.33-.43-.4-.7,1.56-.45,3.08-1.44,4.84-1,.63,.27,.73,.73,.47,1.32-.13,.14-.29,.19-.48,.16Z"/>
  <path class="cls-204" d="M92.51,27.71c.26-.16,.51-.32,.77-.48,.2-.21,.43-.38,.73-.41,.34,.02,.46,.3,.62,.52,.03,.29,.08,.58,.37,.74,0,.22,0,.44,.01,.66-.53,.54-1.15,.65-1.85,.37-.17-.32-.43-.55-.77-.68-.08,0-.16,.02-.23,.05,0-.14-.02-.28-.03-.42,.03-.22,.14-.35,.37-.36Z"/>
  <path class="cls-28" d="M92.4,28.43c.27-.09,.59-.32,.8-.25,.31,.1-.02,.38-.04,.58-.22,.34,.07,.65,.06,.98,.02,.45-.02,.88-.3,1.26-.58,.44-1.34,.44-1.96,.77-.48-.09-.57-.37-.38-.78,.09-.51,.06-.99-.27-1.42,.34-.02,.68-.04,1.02-.06,.38,.58,.74,.44,1.09-.03,0-.35-.02-.7-.03-1.06Z"/>
  <path class="cls-117" d="M89.52,28.49c0,.08,0,.15,0,.23-.14,.34-.42,.34-.72,.31-.5-.52-1.63,.18-1.81-.94l.04-.06c.59-.18,1.13-.53,1.78-.56,.54,.13,.75,.49,.71,1.02Z"/>
  <path class="cls-155" d="M85.88,31.28c.73-.22,1.46-.65,2.21-.04-.93,.34-1.9,.5-2.89,.44,.1-.34,.4-.36,.68-.4Z"/>
  <path class="cls-118" d="M86.99,28.09c.49,.53,1.48,.11,1.81,.94-.47,.06-.95,.11-1.42,.17-.23-.16-.46-.32-.69-.48-.02-.27,0-.51,.3-.63Z"/>
  <path class="cls-264" d="M92.43,29.49c-.01,.45,.19,1.07-.58,1.05-.7-.02-.72-.49-.51-1.02,.36-.01,.73-.02,1.09-.03Z"/>
  <path class="cls-276" d="M90.58,31c.09,.22,.01,.53,.35,.61,.81-.47,1.75-.2,2.6-.42,1.08-.03,2.17-.04,3.25-.01,1.06,.03,1.26,.53,.68,1.39-2.42,.51-4.87,.32-7.32,.31-.48,0-.96-.09-1.29-.51-.06-1.04,1.4-.39,1.44-1.31,.09-.04,.18-.06,.28-.07Z"/>
  <path class="cls-63" d="M87.32,33.82c-1.03,.55-2.07,1.09-3.31,.75-.1-.37,.17-.51,.43-.65,.67-.12,.8-.61,.8-1.18,.68-.49,1.45-.37,2.21-.34,.13,.19,.22,.4,.23,.64,0,.24-.05,.46-.18,.66-.06,.04-.13,.09-.19,.13Z"/>
  <path class="cls-157" d="M88.86,32.37c2.89,0,5.77,0,8.66,0,.38-.25,.76-.29,1.14-.01,.07,.22,.01,.4-.19,.53-1.8-.09-3.56,.43-5.36,.38-1.01,0-2.02,.04-3.03-.03-.6-.04-1.37,.13-1.6-.75l.37-.13Z"/>
  <path class="cls-79" d="M88.48,32.5c1.54,.57,3.15,.12,4.72,.32,.09,.21,.03,.38-.16,.51-.85,.42-1.77,.24-2.66,.29-.2,0-.4,0-.6,0-.79-.07-1.64,.15-2.33-.44,0-.27,0-.53,.01-.8,.34,.03,.68,.07,1.03,.1Z"/>
  <path class="cls-235" d="M92.18,24.04c-.17,.32-.47,.36-.79,.37-.3-.13-.5-.36-.46-.68,.24-1.64-.1-3.19-.76-4.68-.09-.21-.03-.46-.1-.68,.17,.17-.06-.07-.02,.07,.09,.29-.07,.58-.48,.51-.01-.25-.02-.5-.04-.75,.07-.38-.08-.9,.51-.99,.5-.08,.76,.25,.91,.68,.25,.72,.49,1.44,.74,2.16,.96,.87,.87,2.02,.84,3.16-.04,.32-.18,.59-.36,.84Z"/>
  <path class="cls-268" d="M92.18,23.31c-.16-1.09-.32-2.18-.48-3.26,.55-.4,.93-.89,.79-1.62,.12-.06,.25-.12,.37-.18,.58,.97,.24,1.93-.01,2.89,.1,.37,.19,.73,.29,1.1,.23,.84,.16,1.42-.95,1.08Z"/>
  <path class="cls-279" d="M102.29,32.3c-.16,.27-.32,.54-.47,.81-.58,.08-1.2-.86-1.76,.06-.68,.17-.99-.4-1.44-.7v-.12c-.27-1.3,.9-.71,1.37-1.05,.64,.05,1.27,.19,1.9,.31,.15,.03,.31,.06,.46,.09-.02,.2-.04,.4-.06,.6Z"/>
  <path class="cls-14" d="M101.16,29.51c.25,.24,.5,.48,.75,.72-.38,.02-.76,.03-1.13,.05-.23,.13-.47,.24-.74,.26-.6-.04-1.05-.27-1.13-.94,.09-.18,.23-.27,.43-.27,.6,.11,1.27-.44,1.82,.18Z"/>
  <path class="cls-92" d="M100.1,30.24c.22,.01,.45,.02,.67,.03-.56,1.22,.79,.86,1.11,1.34-.69,0-1.38,0-2.07,0-.23-.05-.45-.11-.56-.36,0-.58,.54-.7,.84-1.03Z"/>
  <path class="cls-139" d="M94.9,22.99c.29-1.34,.57-2.67,.86-4.01,.11-.2,.28-.4,.32-.61,.12-.6,.26-1.35,.95-1.31,.69,.03,.43,.84,.56,1.32,.06,.22,.2,.42,.3,.62,.13,1.82-.1,3.62-.35,5.41-.24,.26-.47,.51-.71,.77-1.8,.11-2.23-.38-1.91-2.18Z"/>
  <path class="cls-148" d="M117.54,48.5c-.11,.09-.22,.18-.32,.28-.49-.27-1.19-.32-1.17-1.12-.66-3.23-.18-6.5-.31-9.75,.44-.33,.82-.83,1.47-.46,.61,.06,.6,.5,.52,.93-.4,2.29,0,4.54,.29,6.8,.14,1.16,.11,2.28-.48,3.33Z"/>
  <path class="cls-91" d="M117.54,48.5c.57-2.44,.14-4.86-.32-7.24-.26-1.32,.76-2.56-.01-3.82,.41-.53,.74,0,1.1,.09-.67,2.05-.38,4.13-.21,6.21,.13,1.61,.82,3.31-.55,4.75Z"/>
  <path class="cls-243" d="M84.44,33.92c-.14,.22-.28,.43-.43,.65-.82-.2-1.93,.69-2.43-.67,.48-.02,.96-.04,1.44-.06,.47,.03,.94,.05,1.42,.08Z"/>
  <path class="cls-88" d="M76.76,33.43c.99,.95-.09,2.02,.17,3.01-1-.58-1.27-1.48-1.17-2.56,.25-.16,.51-.31,.76-.47,.08,.03,.16,.04,.24,.02Z"/>
  <path class="cls-255" d="M104.82,76.05c0,.83,0,1.66,0,2.49-2.23,.28-4.32-.7-6.52-.73-.24-1.45,.36-1.92,1.8-1.81,1.56,.12,3.14,.04,4.71,.05Z"/>
  <path class="cls-107" d="M108.79,67.95c-.26,.29-.51,.58-.77,.88-2.9,.83-5.88,.31-8.82,.5-1.14,.07-2.29,.1-3.43,.15-1.39,.59-1.45-.38-1.6-1.32-.2-1.22,.66-2.46-.06-3.67-.18-.32-.32-.66-.37-1.03,0-.44,.14-.85,.25-1.27,.35-.74-.19-1.7,.58-2.33,.47-.32,.96-.43,1.51-.18-.78-.36-1.15-1.02-1.33-1.81-.18-1.12,.41-1.41,1.38-1.28,1.56,.88,2.81,2.12,4.1,3.33,.22,.28,.38,.59,.49,.92,.21,.73,.02,1.39-.29,2.04-.15,.31-.3,.61-.44,.92-.08,.22-.18,.43-.25,.65-.11,.39-.32,.86,.21,1.06,.69,.26,.72-.36,.86-.78,.11-.33,.19-.67,.32-1,.07-.16,.16-.31,.27-.44,.14-.11,.29-.18,.46-.21,.17,0,.33,.03,.49,.1,.74,.49,.59,1.5,1.2,2.07,.16,.18,.32,.36,.48,.54,.68,.59,1.33,1.23,2.34,.6,.97-.61,1.65-1.35,1.34-2.6-.31-.94-.89-1.74-1.3-2.63-.03-.46,.11-.87,.3-1.27,.29-.48,.61-.93,1.17-1.11,1.05,.07,1.6,.88,1.55,1.68-.14,2.51,.58,5.1-.66,7.51Z"/>
  <path class="cls-31" d="M94.27,64.03c.81,.69,.59,1.51,.54,2.45-.06,1.01-1.14,2.6,.96,3-1.27,1.22-2.47,2.55-4.11,.33-.5-.68-1.58-.41-2.42-.46-2.93-.16-5.89,.34-8.81-.25-.09-.22-.04-.38,.17-.49,.2-.06,.4-.07,.6-.04,3,.07,5.99,.1,8.98-.02,.17-.06,.35-.08,.53-.09,.8,0,1.62,.78,2.39-.08,.39-.1,.71-.25,.67-.74-.01-.48-.19-.94-.11-1.42,.08-.41,.14-.83,.18-1.25,.05-.35,.12-.7,.42-.94Z"/>
  <path class="cls-290" d="M110.59,71.66c-.12,.42-.23,.84-.35,1.26-.79-.71-1.24-1.57-1.18-2.66,.8,.15,1.2,.74,1.53,1.4Z"/>
  <path class="cls-30" d="M76.84,72.77c-.13-1.11,.46-1.67,1.48-1.88,.24,1.2-.45,1.68-1.48,1.88Z"/>
  <path class="cls-36" d="M80.46,68.75c0,.12,0,.24-.02,.36-.51,.02-1.02,.03-1.54,.05-.21-.35-.42-.71-.64-1.06,0-.13,0-.27,.01-.4,1.13-.48,1.22,1.2,2.18,1.06Z"/>
  <path class="cls-168" d="M108.79,67.95c0-.9,.17-1.78,.33-2.66,.3-1.65-.48-3.29-.11-5,.09-.41-.47-1.22-1.24-1.35-.36,.18-.46-.06-.53-.33,.03-.37,.2-.68,.43-.96,1.79-2.02,1.15-4.17,.35-6.32-.06-.4,.01-.85-.4-1.14-.09-.63,0-1.25,0-1.88,0-1.04,.07-2.09-.15-3.12-.02-.28,.02-.55,.22-.77,.47,.21,.94,.43,1.48,.33,.23,1.06-.36,2.25,.49,3.21,.33,6.12,.16,12.24,.06,18.36,0,.4-.26,.79-.4,1.19-.18,.15-.36,.3-.54,.45Z"/>
  <path class="cls-7" d="M109.88,36.43c-.49-1.34-.37-2.59,.54-3.73,.3-.01,.51,.12,.65,.38-.34,1.14,.51,2.7-1.19,3.35Z"/>
  <path class="cls-249" d="M116.43,49.14c.02,1.19,.05,2.37,.07,3.56-.27,.01-.54,.03-.81,.04,0-1.2,0-2.4,0-3.59,.04-.04,.09-.08,.14-.12,.23-.12,.44-.12,.6,.11Z"/>
  <path class="cls-104" d="M112.45,68.99c-.22,.37-.45,.74-.67,1.11-.56-.4-1.24-.73-1.19-1.59,.61,.2,1.34-.08,1.86,.48Z"/>
  <path class="cls-188" d="M117.92,58.96c-.08-.37,.06-.82-.36-1.08,0-1.01,0-2.02-.02-3.03-.01-.57,.15-1.25-.73-1.37,.11-.23,.23-.47,.34-.7,.85,.31,1.16,.97,1.11,1.81-.08,1.45,.32,2.95-.34,4.36Z"/>
  <path class="cls-150" d="M89.17,75.3q.32,.64-.72,.76c-1.66,0-3.33,0-4.99,0,1.86-.79,3.88,.08,5.71-.76Z"/>
  <path class="cls-109" d="M116.43,49.14c-.2-.04-.4-.07-.6-.11-.03-.45-.05-.91-.08-1.36,.1,0,.2,0,.29-.01,.39,.37,.78,.74,1.17,1.12-.3,.03-.63,.03-.78,.37Z"/>
  <path class="cls-196" d="M73.88,48.37c1.68-2.53,1.16-5.35,.97-8.08-.07-1.07-.08-2.16-.25-3.22-.18-1.15-.73-2.15-1.75-2.81,.33-.01,.66-.03,.99-.04,1.24,1.52,1.68,3.24,1.58,5.2-.12,2.28,.41,4.57,.03,6.86-.14,.85-.25,1.68-1.09,2.16-.18,.13-.34,.11-.48-.07Z"/>
  <path class="cls-39" d="M73.88,48.37c.16,.02,.32,.05,.48,.07-.91,1.02-2.17,.53-3.27,.74-.1-.45,.13-.8,.32-1.18,.81,.24,1.62,.47,2.47,.36Z"/>
  <path class="cls-81" d="M69.13,37.5c1.43-.76,2.18-.26,2.21,1.28,.05,2.27,0,4.55,.03,6.82,.01,1.38-.7,2.34-1.73,3.13-.4-.09-.67-.32-.79-.72,.16-3.51,.97-6.99,.29-10.52Z"/>
  <path class="cls-120" d="M69.13,37.5c.76,1.22,.52,2.58,.42,3.86-.17,2.22-.11,4.48-.71,6.66-.13-2.04,.05-4.05,.29-6.08,.17-1.47,.12-2.98-.31-4.44,.1,0,.2,0,.31,0Z"/>
  <path class="cls-62" d="M88.76,27.67c-.51,.42-1.12,.39-1.73,.36,.75-.35,.55-1.48,1.43-1.72,.1,.21,.21,.43,.31,.64,.23,.24,.29,.49-.01,.72Z"/>
  <path class="cls-138" d="M101.54,26.98c-.23-.25-.47-.5-.7-.75,.12-.24,.23-.49,.35-.73,.34,0,.69,.02,1.03,.03,.89,.69,.13,1.02-.31,1.41-.1,.18-.22,.2-.36,.04Z"/>
  <path class="cls-263" d="M101.54,26.98c.12-.01,.24-.02,.36-.04,.23,.66,.89,.9,1.57,1.59-1.18-.25-1.51,.75-2.3,.98-.72,0-1.44-.01-2.16-.02-.08-.07-.11-.14-.08-.21,.03-.07,.06-.1,.09-.1,1.41-.09,2.41-.64,2.53-2.21Z"/>
  <path class="cls-42" d="M65.57,19.17c.59,.02,.87,.37,.94,.76,.09,.49-.14,.99-.64,1.13-.67,.19-.99-.49-1.1-.89-.12-.47,.54-.68,.79-1Z"/>
  <path class="cls-76" d="M99.01,29.18c0,.1,0,.21,0,.31,0,0,0,0,0,0-.98,.84-2.16,.44-3.26,.54-1.01-.01-2.05,.18-2.92-.54-.04-.31,0-.59,.35-.72,.62,0,1.23-.02,1.85-.03,.86,.25,1.71,.06,2.57-.07,.48,.17,.95,.35,1.43,.52Z"/>
  <path class="cls-113" d="M94.9,22.99c0,1.29,.65,2,1.91,2.18-.12,.46-.24,.91-.36,1.37-.65,.18-1.61-.37-1.83,.8-.24-.14-.48-.27-.72-.41-.18-.82,.07-1.86-1.11-2.17-.01-.41-.18-.68-.63-.71,0-.25,0-.49,0-.74,.8,.06,.76-.61,.95-1.08,.35,0,.65,.09,.81,.44,.09,.81,.52,.55,.95,.32Z"/>
  <path class="cls-38" d="M92.84,21.13c0-.96,0-1.93,.01-2.89,.57-.26,.11-1.08,1.16-1.52-.74,1.6-.02,3.17-1.18,4.41Z"/>
  <path class="cls-15" d="M94.31,18.98c0,.96,0,1.92,0,2.89-.69-1.04-.41-2.16-.26-3.27,.04,.02,.11,.02,.12,.06,.05,.1,.09,.22,.13,.33Z"/>
  <path class="cls-182" d="M89.58,18.95c.44-.23,.21-.77,.49-1.08,1.2,2.03,1.65,4.21,1.32,6.54-.49,.54-.98,1.4-1.51,.03,.16-1.84-.6-3.64-.3-5.49Z"/>
  <path class="cls-67" d="M88.76,27.67c0-.24,0-.48,.01-.72,.29-.27,.59-.54,.88-.8,.21,.8,1.55,1.65-.13,2.35-.26-.27-.51-.55-.76-.82Z"/>
  <path class="cls-234" d="M89.91,33.17c.12,0,.25,0,.37-.01,.72,.36,.45,1.01,.46,1.57-.4,1.77,1.07,2.57,1.94,3.67,.71,.83,1.55,1.63,.57,2.8-.54,.2-1.06,.02-1.58-.1-2.56-2.04-5.39-2.07-8.35-1.11-1.22,.13-2.51,.15-2.55,1.88-.98,2.03-.31,4.15-.3,6.23,0,.17-.01,.34-.03,.51-.16,1.06,.12,1.89,1.17,2.34,.2,.06,.56,.5,.44-.2,.1-1.9-1.14-3.42-1.44-5.2,.93-2.05,1.58-2.34,3.17-.98,2.57,2.19,4.9,4.65,7.42,6.91,.36,.32,.59,.76,.69,1.25-.65,2.08-2.62,2.85-4.11,4.08-1.75,1.45-3.61,2.76-4.98,4.62-1.15,.52-2.31,.24-3.46,.05-1.56,.15-1.82-.72-1.65-2.03,.36-2.82,.07-5.64,.06-8.46,0-2.86-.25-5.72,.02-8.6,.23-2.52,.11-5.07,.18-7.6,.02-.59-.36-1.46,.68-1.58,.82-.1,1.56-.15,2.16,.81,1.65,2.62,5.08,2.47,6.54-.19,0,0,.04,.01,.04,.01,.73-.67,1.82,0,2.55-.67Z"/>
  <path class="cls-72" d="M80.46,68.75c-1.05,.31-1.36-.89-2.18-1.06-.09-.12-.18-.25-.27-.37,.25-.71,.66-1.04,1.49-.87,2.78,.57,3.89-.2,4.47-2.98,.05-.23,.16-.45,.27-.66,2.17-2.43,4.64-4.54,7.09-6.68,.48-.42,1.07-.57,1.65-.09,.32,.49,.3,1.02,.19,1.57-.85,1.42-.06,2.62,.52,3.86-.11,.75-.58,1.46-.24,2.26,.05,.66-.14,1.31-.03,1.97-.32,1,.27,2.07-.21,3.05-.73,1.06-1.47,.32-2.2,.01-3.11-.39-6.22-.41-9.33,.06-.28,.13-.56,.15-.82-.05-.13,0-.26,0-.39,0Z"/>
  <path class="cls-130" d="M79.33,61.47c1.04-.77,2.24-.06,3.33-.34,1.12,.3,.1,1.16,.44,1.66-.17,.34-.47,.42-.82,.39-.97-.42-1.93-.89-2.87,.04-.25,1.55,.61,2,1.94,1.99,.89-.19,1.04-1.15,1.67-1.62,.19-.01,.35,.05,.48,.18,.16,1.3-.79,2.71-2.05,3.06-1.29,.35-2.67-.51-3.27-2.06-.42-1.38,.28-2.37,1.15-3.31Z"/>
  <path class="cls-164" d="M78.18,64.78c1.96,2.14,3.47,2.33,4.76,.58,.39-.53,.84-1.1,.06-1.7,.13-1.02,.61-1.26,1.46-.65-.08,.29-.32,.63-.23,.85,.61,1.55-.72,1.84-1.48,2.64-1.07,1.13-2.11,1.03-3.2,.37-.8-.48-1.07,.17-1.55,.44,.26-.83-.98-1.77,.18-2.54Z"/>
  <path class="cls-151" d="M96.77,48.75c1.99-1.53,4-3.04,5.68-4.92,.46-.52,1-1.06,.97-1.86,.07-.16,.16-.31,.27-.45,.18-.23,.39-.56,.69-.37,.42,.27,.29,.7,.09,1.09-.02,.24-.04,.48-.05,.71-.29,.57,.84,.64,.44,1.25-3.38,2.39-6.21,5.41-9.33,8.1-.49,.42-.97,.97-1.72,.48-.29-.41-.28-.85-.17-1.31,.19-.54,.43-1.02,1.05-1.17,.23-.16,.46-.32,.69-.47,.17-.75,.91-.77,1.42-1.07Z"/>
  <path class="cls-44" d="M91.65,40.8c.56-.11,1.06,.07,1.54,.31,1.13,.41,.42,1.22,.41,1.88,0,.59-.02,1.19-.03,1.78,.01,1.88,1.03,3.9-.75,5.55-.81-.02-1.09-.62-1.35-1.24-.24-1.32,.44-2.56,.24-3.94-.18-1.23-.39-2.35-1.12-3.36,.05-.65,.64-.72,1.05-.99Z"/>
  <path class="cls-252" d="M104.47,42.23c-.04-.27-.09-.54-.13-.81-.22,.14-.44,.28-.66,.42-.63-1.92-1.83-.99-2.93-.6-.71-.08-1.11-.44-1.09-1.19,.4-.46,1.17-.23,1.62-.81-1.44-.54-2,1.02-3.09,1.13-.65-.16-.87,.83-1.78,.54,.98-.82,.62-2.63,2.22-2.69,2.19-.09,4.62-.54,5.79,2.22,.26,.61,.66,1.17,.06,1.79Z"/>
  <path class="cls-43" d="M93.6,42.99c-.76-.49,.24-1.36-.41-1.88,.35-1.03-.16-1.79-.77-2.52,.1-.36,.38-.54,.7-.67,.69-.41,1.49-.64,2-1.32,.34-.65,.51-1.38,.86-2.02,.15-.11,.31-.16,.5-.16,.83,.4,.58,1.01,.33,1.62-.56,1.09-.83,2.32-2.2,2.92-.63,.27-.23,1.34-.33,2.04-.1,.7,.44,1.64-.67,2Z"/>
  <path class="cls-166" d="M92.85,50.14c.47-.76,.75-1.57,.47-2.46-.33-1.02,.2-1.94,.26-2.91,1.09,.42,1.05,1.28,.87,2.21-.21,1.12-.43,2.25,.23,3.31-.26,.37-.53,.75-.79,1.12-.38,.06-.66-.13-.91-.37-.18-.28-.45-.55-.13-.9Z"/>
  <path class="cls-287" d="M104.83,44.02c-.07-.38-1.08-.4-.42-1.07,1.01,.66,2.51,.24,3.27,1.47,.03,.21,.07,.43,.1,.64,.28,.75-.3,1.36-.35,2.06-.34,.55-.84,.84-1.46,.96-.75,.02-1.37,.71-2.19,.44-.38-1.06,.43-1.39,1.12-1.67,.74-.3,1.21-.74,1.34-1.52-.05-.9-1.12-.69-1.43-1.3Z"/>
  <path class="cls-224" d="M95.71,33.88c.12,.12,.25,.24,.37,.35,.13,.06,.18,.14,.14,.22-.03,.08-.07,.13-.11,.13l-.06,.03c-.45,.47-.84,1-1.47,1.26-.52,.15-1.02-.08-1.54-.03-1,0-1.65-.43-1.77-1.49,.85-1.1,2.7-1.3,4.43-.47Z"/>
  <path class="cls-61" d="M95.71,33.88c-1.14,0-2.27,0-3.41-.02-.54-.01-.82,.12-.58,.71-.2,.23-.41,.44-.72,.51-.36,.02-.52-.25-.7-.48-.03-.48,.35-.97-.01-1.45,.97-.02,1.93-.04,2.9-.06,.86-.17,1.72-.3,2.56,.07-.01,.24-.02,.48-.03,.72Z"/>
  <path class="cls-218" d="M98.17,40.38c.61-.73,1.25-1.49,2.17-1.77,.6-.18,1.44-.22,1.64,.62,.19,.8-.78,.41-1.11,.81-.18,.22-.76,.12-1.16,.17-.23,.39-.53,.67-1.03,.64-.17-.16-.34-.32-.52-.48Z"/>
  <path class="cls-221" d="M98.69,40.85c.34-.21,.69-.43,1.03-.64,.36,.3,.73,.6,1.09,.89,.15,.1,.22,.23,.2,.41-.07,.08-.12,.18-.17,.28-.52,.62-1.11,1.15-1.86,1.49h0c-.96-.29-.51-.89-.33-1.44,.01-.33,.02-.66,.04-.99Z"/>
  <path class="cls-86" d="M95.74,33.16c-.85-.02-1.71-.05-2.56-.07,0-.09,.01-.18,.02-.28,1.8-.28,3.65,.3,5.42-.34,.7-.22,.93,.53,1.44,.7,.02,.22,.03,.43,.05,.65-1.37-.8-2.87-.76-4.37-.66Z"/>
  <path class="cls-77" d="M96.77,48.75c-.38,.48-.78,.94-1.42,1.07-.98-.52,.28-1.45-.37-2.03,.4-.11,.81-.58,1.19,.08,.17,.3-.08,.92,.6,.87Z"/>
  <path class="cls-119" d="M101.02,41.52c-.07-.14-.13-.27-.2-.41,1.82-1.29,2.62-1.09,2.86,.73-.07,.06-.16,.1-.25,.12-.58-1.4-1.5-.88-2.41-.44Z"/>
  <path class="cls-61" d="M96.11,34.58c-.01-.11-.03-.23-.03-.34,.52-.24,1.29-.73,1.55-.13,.29,.64-.42,1.33-.83,1.93-.05-.57,.27-1.32-.69-1.45Z"/>
  <path class="cls-281" d="M98.99,43.29c.4-.78,.93-1.38,1.86-1.49-.09,1.16-.69,1.68-1.86,1.49Z"/>
  <path class="cls-283" d="M98.65,41.85c.18,.46-.33,1.08,.33,1.43-.11,.36-.31,.71-.7,.63-.49-.1-.38-.54-.23-.85,.19-.41,.1-.96,.6-1.21Z"/>
  <path class="cls-10" d="M92.8,24.76c.5-.25,.84-.35,1.36,.2,.85,.89-.34,1.31-.25,1.97-.21,.1-.42,.2-.63,.3-.17-.82-1.09-1.5-.48-2.47Z"/>
  <path class="cls-278" d="M92.51,27.71c-.13,.12-.25,.24-.37,.36-.66-.03-1.39,0-1.44-.92-.02-.43,.34-.64,.7-.68,.91-.1,1.05,.56,1.11,1.25Z"/>
  <path class="cls-153" d="M92.82,29.49l2.91,.03c.67,.39,.83,.89,.37,1.55-.77,.42-1.61,.18-2.41,.23-.31-.02-.61-.08-.82-.34-.02-.49-.03-.98-.05-1.47Z"/>
  <path class="cls-167" d="M92.87,30.96c.23,0,.46,0,.69,0,.21,.24,.21,.47-.03,.69-.87-.02-1.73-.03-2.6-.05,.32-1.19,1.27-.49,1.94-.65Z"/>
  <path class="cls-215" d="M93.53,31.66c0-.23,.02-.46,.03-.69,.84-.02,1.69-.05,2.53-.07,1.18-.73,2.28-.64,3.29,.33,.15,.13,.3,.27,.44,.4-.29,.42-1.16-.11-1.2,.73-.37,0-.74,0-1.11,.01,0-.39,.18-.82-.59-.75-1.12,.11-2.26,.03-3.4,.04Z"/>
  <path class="cls-61" d="M89.91,33.17c-.58,1.26-1.69,.49-2.55,.67,.03-.21,.06-.43,.09-.64,.82,0,1.65-.02,2.47-.02Z"/>
  <path class="cls-125" d="M99.38,31.22c-1.08-.28-2.18-.38-3.29-.33,.06-.5-.11-.94-.35-1.37,1.09,0,2.18-.02,3.27-.03,.18,.52,.59,.71,1.1,.74,.04,.54-.44,.69-.72,.99Z"/>
  <path class="cls-273" d="M107.66,57.88c-.1,.26-.2,.51-.3,.77-1.91,1.05-3.9,1.98-5.28,3.77-1.51,.37-1.13-1.05-1.59-1.67l-.4-.55c-1.49-2.03-3.43-3.6-5.36-5.18-.99-1.49-.85-1.86,.97-2.45,1.72,1.14,3.08,2.66,4.45,4.17,1.23,1.36,2.51,1.9,4.3,1.05,1.01-.48,2.18-.72,3.23,.1Z"/>
  <path class="cls-51" d="M101.87,62.24c1.29-2.02,3.03-3.36,5.49-3.59,.14,.09,.27,.19,.41,.28,.02,.57-.5,.71-.81,1.03-.48,.67-1.33,.59-1.94,1-.72,.31-1.42,.65-1.82,1.38-.29,.38-.49,.83-.94,1.06-.13-.03-.26-.06-.39-.09-.43-.36-.63-.72,0-1.09Z"/>
  <path class="cls-121" d="M95.14,54.9c1.67,1.49,3.34,2.98,5,4.48,.29,.26,.45,.58-.06,.81-1.35-1.14-2.69-2.28-4.03-3.42-.64-.42-1.46-.55-1.94-1.23-.06-.29-.01-.54,.22-.73,.28-.09,.55-.02,.81,.09Z"/>
  <path class="cls-291" d="M103.73,65.99c-.15-.14-.29-.29-.44-.43,.06-.27,.21-.45,.46-.56,1.06,.09,2.26,.73,2.91-.75,.45-1.14-.11-1.81-1.07-2.29-.34-.11-.68-.22-.88-.56-.02-.21,.06-.36,.26-.46,.58-.27,1.13-.31,1.62,.2,1.02,.55,1.11,1.67,1.6,2.55-.53,2.76-1.89,3.47-4.45,2.29Z"/>
  <path class="cls-177" d="M93.51,61.51c-1.13-1.07-1.6-2.26-.73-3.72,.14,.09,.25,.21,.32,.36,.16,.28,.05,.8,.43,.83,.23,.02,.15-.48,.24-.74,.11-.25,.28-.42,.53-.51,.18-.01,.33,.04,.46,.17,.47,.72,.63,1.43-.02,2.14-.68,.63,.35,1.6-.45,2.2-.4-.1-.52-.5-.79-.73Z"/>
  <path class="cls-94" d="M103.73,65.99c2.83,.56,3.37,.28,4.45-2.29,.34,1.52-.43,2.4-1.66,3.13-1.3,.77-2.04,.02-2.79-.84Z"/>
  <path class="cls-295" d="M101.55,63.63c.18,.53-.33,.88-.36,1.35-.06,.84-.39,1.45-1.36,1.1-.91-.32-.92-.97-.46-1.71,.12-.2,.21-.41,.31-.62,.3,.02,.38,.94,.87,.19,.23-.36,.54-.63,1-.31Z"/>
  <path class="cls-82" d="M101.55,63.63c-1,.14-.62,1.5-1.55,1.74-.58-.45-.14-1.1-.32-1.62,.13-.27,.25-.55,.38-.82,.82-.99,1.23-.48,1.51,.43,0,.09-.01,.18-.02,.28Z"/>
  <path class="cls-55" d="M103.79,65.05c-.17,.17-.33,.34-.5,.51-.9-.45-.47-1.54-1.03-2.15,.02-.52,.2-.96,.69-1.22,.4-.3,.79-.33,1.16,.04,.21,.66-.67,1.05-.44,1.71,.07,.37,.25,.72,.12,1.11Z"/>
  <path class="cls-222" d="M94.75,60.04c.11-.73,.22-1.46-.08-2.18,.12-.14,.23-.14,.35,0,.43,.98,1,1.75,2.45,1.44-.85,1.25-1.96,.25-2.72,.74Z"/>
  <path class="cls-40" d="M93.05,65.62c-.59-.67,.04-1.28,.1-1.92-.12-.4,.06-.65,.43-.77,.28-.09,.39,.08,.41,.34,.09,.26,.19,.51,.28,.77,0,.34,0,.68,0,1.03-.32,.37-.64,.76-1.22,.56Z"/>
  <path class="cls-128" d="M95.02,57.85c-.12,0-.23,0-.35,0-.12,0-.25-.01-.37-.02-.62-.73-.62-1.45,.02-2.17,.86-.08,1.43,.31,1.74,1.1-.48,.23-1.33,.11-1.03,1.08Z"/>
  <path class="cls-11" d="M93.99,63.27c-.51-.32-.62,.16-.84,.43-.56-.84-.37-1.56,.36-2.18,.54-.05,.74,.26,.79,.73,.02,.38,.02,.75-.31,1.03Z"/>
  <path class="cls-272" d="M101.57,63.35c-.41-.48-.81-.98-1.51-.43-.02-.76,.69-1.38,.42-2.18,1.07-.06,.12,1.74,1.38,1.49-.33,.36-.14,.73,0,1.09-.1,.01-.2,.02-.3,.03Z"/>
  <path class="cls-183" d="M106.58,61.15c-.58-.03-1.16-.05-1.74-.08-.1-.05-.14-.12-.13-.19,.02-.08,.04-.12,.07-.12,.59-.64,1.34-.81,2.17-.8,.08,.46-.2,.81-.37,1.19Z"/>
  <path class="cls-193" d="M81.57,68.72c.06-.51,.37-.69,.86-.69,2.68,0,5.37,0,8.05,0,.59,0,.76,.2,.52,.74-.12,0-.25,.01-.37,.02-3.02,.22-6.04,.33-9.06-.05Z"/>
  <path class="cls-36" d="M81.57,68.72c3.02,.02,6.04,.04,9.06,.05-3.26,.53-6.52,.57-9.78-.01,.24-.01,.48-.03,.72-.04Z"/>
  <path class="cls-286" d="M93.05,65.62c.41-.18,.81-.37,1.22-.56,0,.45,.11,.93-.35,1.26-.65,.62-.09,.91,.33,1.25,.13,.83-.16,1.27-1.06,1.17-.28-1.03-.67-2.06-.15-3.12Z"/>
  <path class="cls-48" d="M94.25,67.57c-.4,.05-.91,.3-1.04-.31-.1-.48-.04-1.01,.7-.94,.11,.42,.22,.83,.33,1.25Z"/>
  <path class="cls-107" d="M107.66,57.88c-1.35-.17-2.67-.06-3.85,.63-1.14,.66-2.1,.33-2.91-.45-1.75-1.69-3.43-3.46-5.14-5.19-.42-.7,.21-1,.57-1.31,2.3-1.96,4.3-4.23,6.7-6.08,1.61-1.24,2.43-1.3,3.54-.24-.19,.92-.08,2-1.6,1.96-.42-.01-.93,.65-1.17,1.23-.06,.66-.55,1-1.03,1.35-.21,.18-.59,.28-.54,.61,.05,.34,.4,.4,.69,.36,.52-.07,.67-.59,1.02-.89,.46-.37,.96-.43,1.49-.2,.23,.14,.35,.36,.41,.62,.1,.46-.11,.91-.02,1.37,.08,.27,.18,.54,.31,.79,1.17,.37,.89-.83,1.34-1.23,.15-.21,.33-.37,.61-.26,1.58,1.7,1.14,3.75,.91,5.73-.08,.66-.54,1.19-1.33,1.22Z"/>
  <path class="cls-260" d="M105.5,51.7c-.43-.42,.1-.7,.15-1.04,.2-.66,.34-1.34,.97-1.76,.46-.23,.92-.58,1.44-.11-.07,.45-.14,.9-.21,1.34-.49,.96-1.15,1.67-2.35,1.58Z"/>
  <path class="cls-228" d="M108.06,48.78c-.47,.11-.95,.22-1.42,.33-.21-.88,.46-1.47,.71-2.19-.66-.81,.46-1.2,.44-1.86,.74,1.2,.15,2.49,.27,3.73Z"/>
  <path class="cls-251" d="M105.5,51.7c.78-.53,1.56-1.05,2.34-1.58,.55,.13,.4,.47,.23,.81-.13,.11-.25,.22-.38,.34-.48,.55-.81,1.36-1.8,1.01-.31-.07-.38-.31-.41-.57Z"/>
  <path class="cls-110" d="M92.85,50.14c.14,.3,.29,.6,.43,.9,.06,.37-.06,.68-.28,.97-.13,.12-.28,.2-.45,.24-1.96-.88-3.3-2.53-4.84-3.92-1.57-1.4-3.01-2.93-4.71-4.19-.9-.66-1.52-.53-2.1,.33-.6,.49-.98,.45-.96-.42,.02-.78,.42-1.49,.49-2.26-.26-2.38,1.59-1.9,2.9-2.16,.61-.16,1.21-.24,1.82,0,.5,.78-1.01,1.28-.3,2.09,1.62,1.87,3.46,3.53,5.19,5.28,.63,.64,1.23,1.31,1.72,2.07,.36,.36,.73,.72,1.09,1.07Z"/>
  <path class="cls-213" d="M82.98,62.62c-1.52-.2,.56-1.16-.31-1.49,.94-2.05,2.97-2.98,4.53-4.38,1.46-1.32,3.25-2.27,4.44-3.9,.19-.59,.87-.44,1.21-.82h-.01c1.27,.51,.7,1.35,.39,2.15-2.6,2.8-5.59,5.19-8.34,7.84-.57,.55-1.38,.06-1.9,.61Z"/>
  <path class="cls-35" d="M92.83,52.02c-.27,.47-.64,.78-1.21,.82-1.12-1.94-3.1-3.01-4.59-4.59-1.08-1.14-2.22-2.22-3.38-3.28-1.09-.99-2.09-1.16-2.72,.5-.59-.41-.28-.94-.18-1.43,.59-1.09,1.37-.96,2.22-.34,2.97,2.2,5.48,4.92,8.24,7.35,.47,.41,.77,1.16,1.61,.96Z"/>
  <path class="cls-140" d="M85.22,39.97c-.55-.55-1.28-.13-1.89-.35,2.97-.98,5.86-1.35,8.33,1.18,.07,.77-.57,.55-.95,.69-.08,0-.16,.01-.25,.02-.8-.1-1.61-.22-2.41-.3-.2-.14-.36-.33-.53-.5-.71-.43-1.71,.08-2.29-.73Z"/>
  <path class="cls-173" d="M80.76,44.04c.06,.48,.12,.95,.18,1.43,.63,1.5,1.35,2.96,1.55,4.61,.04,.35,.24,.68-.12,.95-1.32-.49-1.82-1.64-2.26-2.83-.22-2.16-.87-4.33,.31-6.42,.21,.77-.28,1.47-.27,2.2,.02,1,.39,.09,.61,.06Z"/>
  <path class="cls-161" d="M90.29,34.6l.64,.37c.63,.4,.72,1.23,1.31,1.68,.25,.56,1.1,.78,.91,1.58-.24,.12-.49,.24-.73,.37-1.27-1.03-2.56-2.05-2.12-3.99Z"/>
  <path class="cls-201" d="M80.11,48.2c.75,.94,1.5,1.89,2.26,2.83-.02,.33,.68,.61,.25,.86-.38,.23-.64-.44-1.01-.6-.82-.65-1.4-1.45-1.62-2.49,.04-.2,.08-.4,.12-.61Z"/>
  <path class="cls-124" d="M79.98,48.81c.54,.83,1.08,1.66,1.62,2.49-1.44-.24-1.69-1.26-1.62-2.49Z"/>
  <path class="cls-1" d="M82.98,62.62c3.82-2.21,6.6-5.64,9.86-8.51,1.15,.74,.64,1.34-.16,1.92-1.44-.07-1.98,1.28-2.87,1.98-1.9,1.52-3.58,3.32-5.35,5-.64-.12-1.15,.03-1.46,.65,0,0,.02-.01,.02-.01-.15,.2-.36,.24-.59,.19-.14-.06-.25-.16-.31-.3-.05-.23-.03-.44,.2-.58,.26-.05,.57,0,.67-.35Z"/>
  <path class="cls-101" d="M92.68,56.03c.04-.64,.97-1.21,.16-1.92,.36-.7,.6-1.4-.02-2.09-.02-.41,.18-.71,.46-.99,.2,.12,.4,.25,.6,.37,.02,.43,.03,.86,.05,1.3,.38,.72,.15,1.52,.28,2.27,.03,.23,.07,.46,.1,.69,0,.72-.01,1.45-.02,2.17-.11,.11-.23,.21-.34,.32-.36,.06-.73,.55-1.06-.04-.01-.12-.05-.23-.12-.33-.03-.59-.07-1.17-.1-1.76Z"/>
  <path class="cls-6" d="M81.59,65.56c-1.85,.45-3.03-.74-2.6-2.62,1.27-.56,2.43-.55,3.34,.68h.01c.2,.82-.44,1.32-.75,1.94Z"/>
  <path class="cls-164" d="M82.34,63.62c-1.03-.65-2.16-.79-3.34-.68,1.11-.98,2.22-1.13,3.31,.04,0,.22,.02,.43,.02,.65Z"/>
  <path class="cls-164" d="M81.59,65.56c-.22-.83,.36-1.35,.75-1.95,.22,.01,.45,.03,.67,.04-.13,.89-.47,1.62-1.42,1.9Z"/>
  <path class="cls-163" d="M94.21,54.98c-.5-.71-.37-1.49-.28-2.27,1.04-.01,1.51-.9,2.16-1.48,2.07-1.84,4.1-3.73,6.12-5.63,.77-.72,1.65-1.2,2.61-1.58,.61,.37,1.99-.38,1.74,1.22-1.09-.86-2.2-.35-2.99,.3-2.75,2.28-5.42,4.67-7.82,7.32-1.47,.3-1.64,.99-.62,2.04-.31,.03-.62,.05-.93,.07Z"/>
  <path class="cls-208" d="M87.88,40.52l.23,.59c.86,.07,1.71,.18,2.55,.38,0,0,.03,0,.03,0,2.12,1.54,1.3,3.79,1.38,5.81,.02,.58-.21,1.18-.32,1.76-2.57-2.28-5.04-4.65-7.25-7.29,.55-1.95,2.08-1.28,3.37-1.25Z"/>
  <path class="cls-280" d="M93.15,38.22c-.34-.51-1.14-.68-1.1-1.47-.07-.8,.99-.71,1.09-1.38,.49,.1,.98,.19,1.47,.29-.7,1.05,1.09,.28,.76,1.05-.33,1.11-1.33,1.22-2.22,1.51Z"/>
  <path class="cls-178" d="M95.37,36.72c-.19-.4-1.62,.11-.76-1.05,.35-.53,.73-1.02,1.45-1.05,.2,.84-.17,1.5-.69,2.1Z"/>
  <path class="cls-37" d="M102.68,49.43c.37-.34,.75-.68,1.12-1.01,.76-.14,1.28-.97,2.17-.74,.64,.7,.47,1.24-.33,1.66-.97,.07-1.84,.97-2.89,.34-.02-.08-.05-.16-.07-.25Z"/>
  <path class="cls-32" d="M105.54,49.04c.61-.31,.46-.85,.43-1.36,.68,.14,.89-.57,1.38-.77,.2,.87-.22,1.55-.71,2.19-.36,.5-.43,1.18-.98,1.55-.04-.27-.07-.54-.11-.81-.25-.27,.05-.54,0-.8Z"/>
  <path class="cls-261" d="M93.14,35.37c.29,.98-.68,.95-1.09,1.38-1.04-.18-.94-1.07-1.12-1.79,.18-.29,.46-.38,.79-.39,.15,.84,.65,1.05,1.42,.8Z"/>
  <path class="cls-160" d="M104.79,60.75c.01,.11,.03,.21,.05,.31,0,.13,0,.27,0,.4-.05,.5,.15,1.19-.77,1.03-.3-.36-.73-.24-1.11-.31,.26-.94,.98-1.27,1.84-1.43Z"/>
  <path class="cls-225" d="M103.79,65.05c-.14-.33-.29-.67-.43-1-.17-1.41,1.12-1.28,1.85-1.75,1.11,.28,1.99,.75,1.81,2.13-.8,1.62-1.91,1.66-3.23,.62Z"/>
  <path class="cls-236" d="M107.01,64.43c-.35-.89-.97-1.52-1.86-1.88-.2-.66,.4-.76,.73-1.04,1.13,.68,1.84,1.53,1.13,2.92Z"/>
  <path class="cls-70" d="M105.89,61.51c-.24,.35-.49,.7-.73,1.04-.73,.35-1.57,.56-1.8,1.5-.55-.87-.1-1.3,.7-1.55,.26-.34,.51-.69,.77-1.03,.35,.01,.7,.03,1.05,.04Z"/>
  <path class="cls-187" d="M92.9,58.12c.35,.01,.7,.03,1.06,.04,.17,.56,.61,1.12-.06,1.64-.2,.16-.44,.18-.66,0-.58-.47-.36-1.1-.34-1.69Z"/>
  <path class="cls-265" d="M104.08,50.23c-.15,.26-.25,.55-.45,.77-.43,.47-1,.41-1.47,.14-.33-.19-.78-.64-.74-.9,.09-.6,.89-.43,1.26-.8,0,0,.03,.01,.03,.01,.12,.86,1.07,.25,1.37,.78Z"/>
  <path class="cls-168" d="M105.91,52.28c.6-.34,1.2-.67,1.8-1.01-.02,.71-.36,1.27-.82,1.76-.25,.27-.54,.52-.94,.23-.42-.31-.07-.66-.04-.99Z"/>
  <path class="cls-144" d="M104.08,50.23c-.52-.15-1.42,.37-1.37-.78,1.03,.46,1.89-.2,2.83-.4,.39,.26,.08,.53,0,.8-.5,.09-1.07-.1-1.46,.38Z"/>
  <path class="cls-145" d="M87.88,40.52c-1.08,.53-2.61-.15-3.37,1.25-1.12-1.13,.04-1.38,.71-1.81,.86,.31,1.94-.44,2.66,.55Z"/>
  <path class="cls-21" d="M90.66,41.49c-.9,.2-1.78,.31-2.55-.38,.91-.28,1.8-.41,2.55,.38Z"/>
</svg>